<svg width="1024" version="1.0" xmlns="http://www.w3.org/2000/svg" height="1024" xmlns:algsvg="http://dtd.allegorithmic.com/algsvg.dtd" algsvg:version="1.0">
 <path fill="rgb(255,0,0)" d="M0.515449,0.138367 L0.515576,0.144608 L0.516,0.15084 L0.516707,0.157043 L0.517705,0.163207 L0.519004,0.169318 L0.520613,0.175366 L0.522541,0.181337 L0.524779,0.187213 L0.527319,0.192977 L0.530152,0.198609 L0.53327,0.20409 L0.536663,0.209407 L0.540324,0.214543 L0.544245,0.219485 L0.548416,0.224217 L0.552824,0.228729 L0.557457,0.233009 L0.562301,0.237046 L0.567344,0.24083 L0.572568,0.244349 L0.577956,0.247591 L0.583493,0.250545 L0.589162,0.253198 L0.594948,0.255557 L0.600839,0.257629 L0.606821,0.259422 L0.612881,0.260941 L0.619002,0.262169 L0.625168,0.263087 L0.631364,0.263677 L0.637572,0.263922 L0.643774,0.263838 L0.649953,0.263442 L0.65609,0.26275 L0.662167,0.261781 L0.668169,0.260531 L0.674082,0.258998 L0.679891,0.25718 L0.685581,0.255073 L0.691147,0.252696 L0.696582,0.250066 L0.701879,0.247202 L0.707032,0.244121 L0.712031,0.240824 L0.71687,0.237311 L0.721539,0.233585 L0.726029,0.229646 L0.730339,0.225501 L0.734466,0.22116 L0.738407,0.216631 L0.74216,0.21192 L0.745707,0.207033 L0.749027,0.201971 L0.752103,0.196739 L0.754916,0.19134 L0.757466,0.185788 L0.759753,0.180098 L0.761775,0.174286 L0.763534,0.168365 L0.76501,0.162351 L0.766182,0.15626 L0.767031,0.150105 L0.767537,0.143904 L0.767715,0.137674 L0.767581,0.131435 L0.767149,0.125205 L0.766436,0.119006 L0.765432,0.112847 L0.764129,0.106742 L0.762516,0.100701 L0.760586,0.094737 L0.758346,0.088867 L0.755806,0.083111 L0.752973,0.077486 L0.749857,0.072012 L0.746465,0.066702 L0.742806,0.061571 L0.738889,0.056635 L0.734721,0.051908 L0.730316,0.0474 L0.725688,0.043124 L0.720847,0.039089 L0.715809,0.035308 L0.710589,0.031791 L0.705204,0.028551 L0.699672,0.025598 L0.694008,0.022946 L0.688225,0.020587 L0.682338,0.018515 L0.67636,0.016723 L0.670304,0.015203 L0.664187,0.013974 L0.658024,0.013055 L0.651832,0.012463 L0.645627,0.012217 L0.639427,0.012299 L0.633251,0.012693 L0.627116,0.013382 L0.621042,0.014349 L0.615042,0.015597 L0.609131,0.017127 L0.603323,0.018943 L0.597634,0.021047 L0.592069,0.023421 L0.586635,0.026047 L0.581339,0.028909 L0.576187,0.031987 L0.571188,0.035281 L0.56635,0.038791 L0.561681,0.042514 L0.55719,0.04645 L0.55288,0.050591 L0.548753,0.054929 L0.544812,0.059455 L0.541058,0.064161 L0.537511,0.069045 L0.53419,0.074103 L0.531112,0.079331 L0.528297,0.084726 L0.525744,0.090274 L0.523454,0.095959 L0.521428,0.101768 L0.519664,0.107685 L0.518183,0.113695 L0.517004,0.119784 L0.516148,0.125936 L0.515635,0.132137 L0.515449,0.138367 ZM0.756407,0.128753 L0.756087,0.131214 L0.755366,0.133462 L0.754229,0.135371 L0.752659,0.136813 L0.750772,0.137818 L0.748683,0.138413 L0.746506,0.138629 L0.744357,0.138492 L0.742317,0.137999 L0.740466,0.137142 L0.738886,0.135918 L0.737657,0.134319 L0.736755,0.132436 L0.736152,0.130356 L0.735824,0.128169 L0.735745,0.125963 L0.735955,0.123818 L0.736493,0.121811 L0.737399,0.120023 L0.738713,0.118532 L0.740357,0.117348 L0.742253,0.116481 L0.744323,0.115943 L0.746489,0.115742 L0.748644,0.115928 L0.750682,0.116551 L0.752495,0.117659 L0.753977,0.119302 L0.755119,0.121357 L0.755911,0.123699 L0.756343,0.126206 L0.756407,0.128753 ZM0.752164,0.168621 L0.751571,0.171069 L0.750632,0.173398 L0.749382,0.175492 L0.747857,0.177238 L0.746093,0.17852 L0.744124,0.179225 L0.74204,0.179419 L0.73993,0.179171 L0.737886,0.178546 L0.735995,0.177612 L0.734333,0.176395 L0.732976,0.17492 L0.731999,0.173212 L0.731476,0.171298 L0.731354,0.169245 L0.731578,0.167122 L0.732096,0.164997 L0.732852,0.162937 L0.733854,0.161037 L0.73511,0.159387 L0.736627,0.15808 L0.738412,0.15721 L0.740388,0.156755 L0.742475,0.156692 L0.744595,0.157 L0.746669,0.157658 L0.748579,0.158669 L0.750207,0.160035 L0.751432,0.16176 L0.752138,0.163846 L0.752367,0.166173 L0.752164,0.168621 ZM0.745422,0.089869 L0.745032,0.092116 L0.744061,0.094035 L0.742635,0.09563 L0.740882,0.096906 L0.738928,0.097867 L0.7369,0.098517 L0.73486,0.098819 L0.732867,0.098733 L0.730982,0.098221 L0.729266,0.097244 L0.727729,0.09589 L0.72638,0.094249 L0.725229,0.092407 L0.724285,0.090455 L0.723619,0.088442 L0.723301,0.086419 L0.723399,0.084439 L0.723984,0.082553 L0.724995,0.080797 L0.72637,0.079211 L0.728048,0.077832 L0.729968,0.076699 L0.732053,0.075919 L0.734222,0.075603 L0.736397,0.075858 L0.738499,0.076793 L0.740453,0.078287 L0.742182,0.080219 L0.743609,0.082468 L0.744659,0.084914 L0.74528,0.087425 L0.745422,0.089869 ZM0.733649,0.201477 L0.733574,0.203654 L0.732977,0.205904 L0.731929,0.208119 L0.730502,0.21019 L0.728767,0.212007 L0.726813,0.21348 L0.724728,0.214514 L0.722601,0.215017 L0.72052,0.214896 L0.718539,0.214255 L0.71671,0.213199 L0.715086,0.211829 L0.713719,0.210251 L0.712667,0.208513 L0.711987,0.206661 L0.711734,0.204746 L0.711966,0.202814 L0.712613,0.200907 L0.713602,0.199066 L0.714863,0.197334 L0.716325,0.19575 L0.717954,0.194404 L0.719715,0.193384 L0.721574,0.192779 L0.723498,0.192677 L0.725432,0.19302 L0.727322,0.193748 L0.729113,0.194802 L0.730752,0.196123 L0.732128,0.19769 L0.73313,0.199482 L0.733649,0.201477 ZM0.726318,0.134961 L0.726203,0.139651 L0.725727,0.143329 L0.72523,0.145738 L0.725237,0.148194 L0.724973,0.151882 L0.724158,0.15648 L0.722985,0.161334 L0.721645,0.165785 L0.720134,0.169909 L0.718447,0.173783 L0.71658,0.177479 L0.714528,0.181075 L0.712304,0.184565 L0.709919,0.187943 L0.707387,0.191207 L0.704718,0.19435 L0.701914,0.197362 L0.698973,0.200231 L0.695895,0.202947 L0.69268,0.205499 L0.689337,0.207889 L0.685879,0.210119 L0.682315,0.212192 L0.678657,0.214111 L0.674911,0.215864 L0.671084,0.217439 L0.667184,0.218827 L0.663216,0.220015 L0.65919,0.221003 L0.655115,0.221794 L0.651,0.222386 L0.646853,0.222781 L0.642686,0.222975 L0.638509,0.222965 L0.634333,0.222747 L0.63017,0.222317 L0.626029,0.22168 L0.621921,0.220839 L0.617857,0.2198 L0.613846,0.218566 L0.609899,0.217137 L0.606026,0.215514 L0.602238,0.213698 L0.598545,0.211688 L0.594956,0.209494 L0.591479,0.207122 L0.588122,0.20458 L0.584895,0.201878 L0.581806,0.199019 L0.578866,0.196009 L0.576084,0.192853 L0.57347,0.189558 L0.571027,0.186132 L0.568758,0.182587 L0.566669,0.178933 L0.564761,0.17518 L0.563041,0.171338 L0.561515,0.167418 L0.56019,0.163428 L0.559071,0.159379 L0.558158,0.155281 L0.557449,0.151144 L0.556943,0.146979 L0.556638,0.142795 L0.556536,0.138604 L0.556641,0.134416 L0.556953,0.130242 L0.557476,0.126095 L0.558203,0.121982 L0.55913,0.117916 L0.560251,0.113905 L0.56156,0.109959 L0.563057,0.106088 L0.564741,0.102301 L0.566611,0.098606 L0.568664,0.095012 L0.570891,0.091524 L0.573277,0.088147 L0.57581,0.084886 L0.57848,0.081745 L0.581285,0.078735 L0.584226,0.075867 L0.587305,0.073153 L0.59052,0.070603 L0.593863,0.068215 L0.597321,0.065987 L0.600885,0.063915 L0.604543,0.061998 L0.608288,0.060247 L0.612114,0.058673 L0.616014,0.057287 L0.619981,0.0561 L0.624006,0.055113 L0.62808,0.054324 L0.632194,0.053732 L0.636339,0.053338 L0.640505,0.053145 L0.64468,0.053156 L0.648854,0.053375 L0.653016,0.053805 L0.657155,0.054443 L0.661261,0.055283 L0.665324,0.056322 L0.669333,0.057557 L0.673278,0.058985 L0.677149,0.060607 L0.680935,0.062423 L0.684627,0.064431 L0.688214,0.066625 L0.69169,0.068995 L0.695045,0.071534 L0.698272,0.074235 L0.701359,0.077092 L0.704298,0.0801 L0.70708,0.083253 L0.709694,0.086546 L0.712137,0.089969 L0.714405,0.093512 L0.716496,0.097163 L0.718405,0.100913 L0.720127,0.104752 L0.721655,0.10867 L0.722984,0.112658 L0.724106,0.116707 L0.725011,0.120888 L0.725689,0.125275 L0.726128,0.129942 L0.726318,0.134961 ZM0.719528,0.055697 L0.719395,0.057883 L0.718701,0.059963 L0.717566,0.061877 L0.716112,0.063568 L0.714458,0.064977 L0.712655,0.066051 L0.710748,0.066736 L0.708788,0.066979 L0.706821,0.066727 L0.704886,0.066057 L0.703022,0.065047 L0.701266,0.063774 L0.699656,0.062316 L0.698277,0.060699 L0.697216,0.058947 L0.696556,0.057085 L0.696384,0.055139 L0.696651,0.053162 L0.697307,0.051206 L0.698305,0.049324 L0.699595,0.04757 L0.701161,0.046068 L0.702983,0.044945 L0.705043,0.044328 L0.707325,0.04434 L0.709706,0.044911 L0.712069,0.045965 L0.714291,0.04743 L0.716254,0.049232 L0.717852,0.051275 L0.718978,0.053462 L0.719528,0.055697 ZM0.703321,0.229291 L0.703074,0.23136 L0.702204,0.233365 L0.700819,0.235235 L0.699026,0.2369 L0.696931,0.238287 L0.694642,0.239327 L0.692277,0.239969 L0.689957,0.24016 L0.687801,0.23985 L0.685929,0.238988 L0.684342,0.237686 L0.683041,0.236056 L0.682029,0.234211 L0.681307,0.232262 L0.680923,0.230274 L0.680926,0.22831 L0.681365,0.226434 L0.682288,0.22471 L0.683602,0.223156 L0.685214,0.22179 L0.68703,0.22063 L0.688958,0.219693 L0.690944,0.219044 L0.692934,0.218743 L0.694877,0.218855 L0.696718,0.219441 L0.698421,0.220437 L0.699947,0.221779 L0.70126,0.223402 L0.702322,0.225242 L0.70304,0.227228 L0.703321,0.229291 ZM0.682037,0.038725 L0.681457,0.040822 L0.680562,0.042765 L0.679375,0.044478 L0.67792,0.045887 L0.676221,0.046917 L0.674302,0.047493 L0.672233,0.047668 L0.670084,0.047496 L0.667928,0.047029 L0.665833,0.046322 L0.663893,0.045364 L0.662198,0.044145 L0.660841,0.042656 L0.659914,0.040886 L0.659397,0.038914 L0.65927,0.036819 L0.659514,0.03468 L0.660109,0.032575 L0.661063,0.030624 L0.662384,0.028943 L0.66408,0.027652 L0.666158,0.026868 L0.668498,0.026554 L0.670977,0.026671 L0.673473,0.027183 L0.675864,0.02805 L0.67803,0.029241 L0.679852,0.030727 L0.681208,0.032475 L0.68198,0.034455 L0.682234,0.036571 L0.682037,0.038725 ZM0.66474,0.242107 L0.664614,0.244226 L0.664056,0.246243 L0.663015,0.248058 L0.661443,0.249569 L0.659457,0.250763 L0.657176,0.251625 L0.654719,0.252139 L0.652204,0.252293 L0.649759,0.252063 L0.647508,0.251428 L0.645579,0.250366 L0.644096,0.248856 L0.643038,0.247014 L0.642379,0.244956 L0.642096,0.242798 L0.642166,0.240656 L0.642595,0.238612 L0.643391,0.236747 L0.644562,0.235142 L0.646115,0.233879 L0.64796,0.232934 L0.650007,0.232283 L0.652167,0.231901 L0.65435,0.231766 L0.656479,0.231919 L0.658478,0.2324 L0.66027,0.233251 L0.661779,0.234514 L0.662992,0.236109 L0.663898,0.237959 L0.664485,0.239984 L0.66474,0.242107 ZM0.641099,0.03333 L0.641029,0.035471 L0.640599,0.037514 L0.639803,0.039378 L0.638632,0.040982 L0.637079,0.042244 L0.635235,0.043189 L0.633188,0.04384 L0.631029,0.04422 L0.628847,0.044355 L0.626718,0.044202 L0.62472,0.04372 L0.622929,0.042869 L0.621421,0.041606 L0.620209,0.040011 L0.619304,0.038162 L0.618718,0.036137 L0.618464,0.034015 L0.618591,0.031896 L0.619149,0.02988 L0.620189,0.028067 L0.621762,0.026556 L0.623748,0.025364 L0.626028,0.024503 L0.628484,0.023989 L0.630998,0.023836 L0.633442,0.024067 L0.635692,0.024702 L0.63762,0.025764 L0.639101,0.027274 L0.640159,0.029116 L0.640817,0.031173 L0.641099,0.03333 ZM0.623916,0.239312 L0.623672,0.241452 L0.623077,0.243557 L0.622123,0.24551 L0.620802,0.247192 L0.619106,0.248484 L0.617026,0.249269 L0.614686,0.249583 L0.612206,0.249466 L0.609708,0.248955 L0.607316,0.248088 L0.605148,0.246896 L0.603325,0.24541 L0.601967,0.243661 L0.601195,0.24168 L0.600941,0.239563 L0.601138,0.237408 L0.601717,0.23531 L0.602612,0.233366 L0.6038,0.231652 L0.605255,0.230242 L0.606955,0.229211 L0.608876,0.228635 L0.610946,0.228459 L0.613095,0.228631 L0.615253,0.229098 L0.617349,0.229805 L0.61929,0.230764 L0.620986,0.231983 L0.622343,0.233473 L0.623271,0.235243 L0.623789,0.237216 L0.623916,0.239312 ZM0.602279,0.047802 L0.601839,0.049677 L0.600916,0.0514 L0.599602,0.052953 L0.59799,0.054319 L0.596174,0.055478 L0.594246,0.056413 L0.592261,0.057062 L0.590271,0.057362 L0.588329,0.05725 L0.586488,0.056663 L0.584787,0.055667 L0.583261,0.054325 L0.58195,0.052702 L0.580889,0.050862 L0.580172,0.048876 L0.579891,0.046813 L0.580139,0.044745 L0.581009,0.042741 L0.582394,0.040872 L0.584188,0.039209 L0.586282,0.037822 L0.588571,0.036783 L0.590935,0.036143 L0.593255,0.035953 L0.59541,0.036263 L0.597281,0.037125 L0.598867,0.038428 L0.600167,0.040057 L0.601178,0.041903 L0.601899,0.043851 L0.602282,0.045839 L0.602279,0.047802 ZM0.586781,0.220985 L0.586515,0.222964 L0.585858,0.224921 L0.584859,0.226804 L0.583568,0.22856 L0.582002,0.230062 L0.580179,0.231186 L0.578117,0.231804 L0.575834,0.231791 L0.57345,0.23122 L0.571086,0.230165 L0.568862,0.228699 L0.566898,0.226896 L0.565299,0.224852 L0.564172,0.222663 L0.563622,0.220426 L0.563755,0.218238 L0.56445,0.216157 L0.565586,0.214242 L0.567042,0.21255 L0.568696,0.21114 L0.570501,0.210065 L0.572409,0.20938 L0.574371,0.209137 L0.576339,0.209389 L0.578275,0.21006 L0.58014,0.211071 L0.581897,0.212345 L0.583508,0.213803 L0.584887,0.215422 L0.585949,0.217175 L0.586609,0.219038 L0.586781,0.220985 ZM0.571471,0.071348 L0.571238,0.07328 L0.57059,0.075186 L0.569601,0.077025 L0.568339,0.078757 L0.566877,0.08034 L0.565248,0.081685 L0.563487,0.082703 L0.561627,0.083307 L0.559704,0.083408 L0.557771,0.083064 L0.555882,0.082336 L0.554092,0.081281 L0.552454,0.079959 L0.55108,0.078392 L0.550079,0.0766 L0.549561,0.074606 L0.549637,0.07243 L0.550235,0.07018 L0.551283,0.067967 L0.552711,0.065897 L0.554446,0.064081 L0.5564,0.06261 L0.558485,0.061577 L0.560612,0.061076 L0.562691,0.061197 L0.564672,0.061838 L0.5665,0.062896 L0.568123,0.064265 L0.569488,0.065843 L0.570539,0.067582 L0.571219,0.069433 L0.571471,0.071348 ZM0.559854,0.18968 L0.559754,0.191662 L0.559168,0.19355 L0.558156,0.195306 L0.55678,0.196893 L0.5551,0.198272 L0.553177,0.199406 L0.551091,0.200185 L0.54892,0.200502 L0.546743,0.200246 L0.544639,0.199309 L0.542684,0.197813 L0.540955,0.195878 L0.539527,0.193626 L0.538477,0.191178 L0.537857,0.188665 L0.537716,0.186218 L0.538107,0.183969 L0.53908,0.182049 L0.540508,0.180453 L0.542264,0.179177 L0.54422,0.178217 L0.546249,0.177567 L0.548292,0.177266 L0.550286,0.177353 L0.552172,0.177867 L0.553889,0.178845 L0.555427,0.180201 L0.556776,0.181844 L0.557927,0.183687 L0.55887,0.185642 L0.559536,0.187657 L0.559854,0.18968 ZM0.551716,0.104777 L0.551837,0.106829 L0.551611,0.108951 L0.551093,0.111075 L0.550336,0.113134 L0.549334,0.115033 L0.548078,0.116682 L0.54656,0.117987 L0.544774,0.118856 L0.542798,0.11931 L0.540711,0.119372 L0.538591,0.119062 L0.536517,0.118403 L0.534608,0.117391 L0.532982,0.116024 L0.531758,0.114298 L0.531054,0.112212 L0.530826,0.109885 L0.531032,0.107438 L0.531627,0.104991 L0.532568,0.102664 L0.533818,0.100571 L0.535344,0.098828 L0.537109,0.097547 L0.539078,0.096844 L0.541161,0.096651 L0.54327,0.096901 L0.545313,0.097527 L0.547203,0.098462 L0.548863,0.099679 L0.550219,0.101155 L0.551195,0.102863 L0.551716,0.104777 ZM0.54741,0.150105 L0.5472,0.15225 L0.546662,0.154257 L0.545755,0.156045 L0.544441,0.157536 L0.542796,0.158719 L0.540899,0.159585 L0.538827,0.160123 L0.53666,0.160322 L0.534504,0.160135 L0.532466,0.159511 L0.530653,0.158401 L0.529171,0.156756 L0.528031,0.154699 L0.527241,0.152355 L0.526811,0.149847 L0.526749,0.147299 L0.527072,0.144838 L0.527795,0.14259 L0.528934,0.140682 L0.530506,0.139241 L0.532394,0.138238 L0.534484,0.137644 L0.536662,0.137431 L0.538811,0.137569 L0.540851,0.138064 L0.542701,0.138922 L0.544279,0.140148 L0.545506,0.141747 L0.546406,0.143631 L0.547006,0.145711 L0.547332,0.147899 L0.54741,0.150105 Z" transform="matrix(1024,0,0,-1024,0,1024)"/>
 <path fill="rgb(255,40,0)" d="M0.534331,0.148493 L0.534337,0.14923 L0.534472,0.149953 L0.534697,0.150617 L0.534975,0.151177 L0.535222,0.151546 L0.535652,0.151702 L0.536278,0.151848 L0.536994,0.151927 L0.537744,0.151916 L0.538472,0.151791 L0.539137,0.151583 L0.539697,0.151326 L0.540069,0.151094 L0.540234,0.150685 L0.540394,0.150081 L0.540486,0.149382 L0.54048,0.148641 L0.540345,0.147911 L0.540122,0.147238 L0.539849,0.146669 L0.539608,0.146293 L0.5392,0.146139 L0.538601,0.145995 L0.537908,0.145919 L0.537169,0.145935 L0.536431,0.146066 L0.535742,0.146279 L0.535154,0.146539 L0.534762,0.146771 L0.53459,0.147186 L0.534425,0.147794 L0.534331,0.148493 Z" transform="matrix(1024,0,0,-1024,0,1024)"/>
 <path fill="rgb(255,80,0)" d="M0.538416,0.108568 L0.538457,0.109215 L0.538546,0.109668 L0.538888,0.109988 L0.539423,0.110377 L0.540073,0.11074 L0.540793,0.111031 L0.541538,0.111205 L0.542255,0.111276 L0.542889,0.111255 L0.543332,0.111182 L0.543657,0.110858 L0.544055,0.110346 L0.544425,0.109714 L0.544717,0.109004 L0.54488,0.108255 L0.544934,0.10753 L0.544896,0.106888 L0.544811,0.106443 L0.544489,0.106129 L0.543981,0.105749 L0.543354,0.105399 L0.542644,0.105118 L0.541889,0.104946 L0.54115,0.104874 L0.540489,0.104891 L0.540026,0.10496 L0.539695,0.105274 L0.539294,0.105775 L0.538923,0.106396 L0.538632,0.107098 L0.538469,0.107842 L0.538416,0.108568 Z" transform="matrix(1024,0,0,-1024,0,1024)"/>
 <path fill="rgb(255,121,0)" d="M0.545834,0.188046 L0.545841,0.187587 L0.546116,0.187221 L0.546558,0.186758 L0.547109,0.186305 L0.547737,0.185911 L0.548411,0.185623 L0.549077,0.185436 L0.549684,0.185345 L0.55012,0.185332 L0.550484,0.185584 L0.550954,0.185998 L0.551421,0.186524 L0.551833,0.187134 L0.552139,0.187804 L0.552341,0.188475 L0.552445,0.189091 L0.552464,0.189534 L0.552219,0.189906 L0.55181,0.190383 L0.551283,0.190859 L0.550661,0.19128 L0.549967,0.191594 L0.549264,0.191805 L0.548616,0.191914 L0.548147,0.191935 L0.547759,0.191684 L0.547266,0.191265 L0.546782,0.190725 L0.546367,0.190092 L0.546079,0.189391 L0.545905,0.188688 L0.545834,0.188046 Z" transform="matrix(1024,0,0,-1024,0,1024)"/>
 <path fill="rgb(255,161,0)" d="M0.557462,0.072903 L0.557536,0.072455 L0.557721,0.07184 L0.558021,0.071183 L0.558436,0.070549 L0.558966,0.070004 L0.559548,0.069566 L0.560117,0.069251 L0.560548,0.069083 L0.561002,0.069203 L0.561611,0.069449 L0.562248,0.069806 L0.56285,0.070261 L0.563354,0.070798 L0.563751,0.071363 L0.564033,0.071901 L0.564182,0.072302 L0.564067,0.072711 L0.563837,0.073262 L0.563507,0.073843 L0.563087,0.074403 L0.562586,0.074889 L0.562056,0.075288 L0.561547,0.075586 L0.561166,0.075756 L0.560762,0.075672 L0.56021,0.075488 L0.559614,0.075205 L0.559023,0.074824 L0.558484,0.074346 L0.558024,0.073822 L0.557669,0.073303 L0.557462,0.072903 Z" transform="matrix(1024,0,0,-1024,0,1024)"/>
 <path fill="rgb(255,202,0)" d="M0.572051,0.220514 L0.572154,0.220056 L0.572376,0.219437 L0.572707,0.218782 L0.57314,0.218155 L0.573664,0.217617 L0.574225,0.217182 L0.574768,0.216864 L0.575177,0.216688 L0.57561,0.216786 L0.576197,0.216997 L0.576822,0.217314 L0.577427,0.217733 L0.577955,0.218247 L0.57839,0.2188 L0.578714,0.219335 L0.578899,0.219739 L0.578809,0.220166 L0.578612,0.220747 L0.57831,0.221369 L0.577908,0.221981 L0.577409,0.22253 L0.576866,0.222993 L0.576332,0.223346 L0.575923,0.223552 L0.57547,0.223478 L0.57485,0.223294 L0.574189,0.222999 L0.57355,0.222591 L0.573,0.222071 L0.572554,0.2215 L0.572229,0.220939 L0.572051,0.220514 Z" transform="matrix(1024,0,0,-1024,0,1024)"/>
 <path fill="rgb(255,242,0)" d="M0.588031,0.046099 L0.588069,0.046567 L0.588203,0.04721 L0.588442,0.0479 L0.588783,0.048573 L0.589222,0.049164 L0.589708,0.049655 L0.590188,0.050027 L0.590557,0.050245 L0.59098,0.050204 L0.591562,0.050075 L0.592193,0.049853 L0.592818,0.049538 L0.593385,0.049132 L0.593871,0.048681 L0.594255,0.048233 L0.594489,0.047887 L0.594478,0.047475 L0.594394,0.046899 L0.594221,0.046263 L0.593951,0.045614 L0.593576,0.044998 L0.593142,0.044453 L0.592694,0.044012 L0.592337,0.043738 L0.591883,0.043731 L0.591245,0.043804 L0.590545,0.043983 L0.589847,0.04428 L0.589218,0.044705 L0.588683,0.0452 L0.588273,0.045704 L0.588031,0.046099 Z" transform="matrix(1024,0,0,-1024,0,1024)"/>
 <path fill="rgb(229,255,0)" d="M0.609412,0.239282 L0.609445,0.239924 L0.609522,0.240375 L0.609842,0.240684 L0.610344,0.241056 L0.610958,0.241395 L0.611646,0.241656 L0.612371,0.241792 L0.613075,0.241823 L0.613703,0.241768 L0.614142,0.241672 L0.61444,0.241326 L0.614799,0.240794 L0.61513,0.240153 L0.61539,0.239449 L0.615536,0.238725 L0.615584,0.23803 L0.615548,0.237415 L0.615468,0.236985 L0.615141,0.236682 L0.614629,0.236313 L0.614006,0.235974 L0.613311,0.235712 L0.612583,0.235575 L0.611879,0.235542 L0.611256,0.235593 L0.610824,0.235684 L0.61053,0.236008 L0.610178,0.236514 L0.609856,0.237132 L0.609604,0.237827 L0.60946,0.238563 L0.609412,0.239282 Z" transform="matrix(1024,0,0,-1024,0,1024)"/>
 <path fill="rgb(188,255,0)" d="M0.626625,0.034079 L0.62666,0.034853 L0.626811,0.035601 L0.627046,0.03628 L0.627329,0.036848 L0.627582,0.037219 L0.628005,0.037382 L0.628629,0.037533 L0.629353,0.037608 L0.630118,0.037579 L0.630868,0.037418 L0.631555,0.037166 L0.632131,0.036865 L0.632506,0.036602 L0.632657,0.036179 L0.632789,0.035558 L0.632846,0.034841 L0.632807,0.034077 L0.632648,0.033317 L0.632406,0.032614 L0.632117,0.032018 L0.631863,0.031625 L0.631433,0.031457 L0.630803,0.031302 L0.63008,0.031226 L0.629319,0.031255 L0.628577,0.031417 L0.6279,0.031672 L0.627336,0.031979 L0.626969,0.032248 L0.626818,0.032692 L0.626685,0.033339 L0.626625,0.034079 Z" transform="matrix(1024,0,0,-1024,0,1024)"/>
 <path fill="rgb(148,255,0)" d="M0.650352,0.241284 L0.650392,0.242048 L0.650551,0.242808 L0.650793,0.243512 L0.651082,0.244108 L0.651337,0.244501 L0.651766,0.24467 L0.652397,0.244824 L0.65312,0.2449 L0.653882,0.244871 L0.654624,0.244708 L0.655301,0.244453 L0.655865,0.244146 L0.656232,0.243877 L0.656383,0.243433 L0.656516,0.242785 L0.656575,0.242045 L0.65654,0.241271 L0.656389,0.240522 L0.656154,0.239843 L0.65587,0.239275 L0.655618,0.238904 L0.655195,0.238741 L0.65457,0.238591 L0.653846,0.238515 L0.653081,0.238544 L0.65233,0.238706 L0.651643,0.238958 L0.651067,0.23926 L0.650692,0.239523 L0.650541,0.239946 L0.650409,0.240567 L0.650352,0.241284 Z" transform="matrix(1024,0,0,-1024,0,1024)"/>
 <path fill="rgb(107,255,0)" d="M0.667598,0.038102 L0.667634,0.038717 L0.667714,0.039146 L0.668041,0.039449 L0.668552,0.039818 L0.669175,0.040157 L0.669869,0.040418 L0.670597,0.040555 L0.671301,0.040588 L0.671924,0.040537 L0.672356,0.040447 L0.672649,0.040123 L0.673002,0.039617 L0.673323,0.038999 L0.673575,0.038305 L0.673719,0.03757 L0.673767,0.036851 L0.673734,0.036209 L0.673657,0.035758 L0.673337,0.03545 L0.672836,0.035078 L0.672222,0.034739 L0.671535,0.034478 L0.67081,0.034342 L0.670106,0.034311 L0.669479,0.034366 L0.66904,0.034462 L0.668743,0.034807 L0.668383,0.035339 L0.668052,0.035979 L0.667792,0.036683 L0.667646,0.037407 L0.667598,0.038102 Z" transform="matrix(1024,0,0,-1024,0,1024)"/>
 <path fill="rgb(67,255,0)" d="M0.688718,0.228222 L0.688729,0.228634 L0.688813,0.22921 L0.688986,0.229847 L0.689257,0.230496 L0.689632,0.231111 L0.690067,0.231657 L0.690515,0.232097 L0.690872,0.232372 L0.691327,0.232379 L0.691965,0.232305 L0.692665,0.232126 L0.693362,0.231829 L0.693992,0.231403 L0.694526,0.230908 L0.694937,0.230403 L0.695179,0.230009 L0.69514,0.229541 L0.695006,0.228897 L0.694767,0.228207 L0.694425,0.227534 L0.693986,0.226943 L0.6935,0.226452 L0.69302,0.22608 L0.692651,0.225863 L0.692228,0.225904 L0.691645,0.226032 L0.691014,0.226255 L0.690389,0.22657 L0.689822,0.226977 L0.689336,0.227428 L0.688952,0.227876 L0.688718,0.228222 Z" transform="matrix(1024,0,0,-1024,0,1024)"/>
 <path fill="rgb(26,255,0)" d="M0.704262,0.056385 L0.704351,0.055958 L0.704549,0.055377 L0.70485,0.054755 L0.705252,0.054143 L0.705751,0.053595 L0.706294,0.053133 L0.706827,0.052779 L0.707235,0.052574 L0.707688,0.052648 L0.708308,0.052831 L0.708969,0.053127 L0.709607,0.053534 L0.710157,0.054054 L0.710602,0.054625 L0.710927,0.055185 L0.711105,0.05561 L0.711002,0.056067 L0.710781,0.056686 L0.710449,0.05734 L0.710017,0.057967 L0.709493,0.058505 L0.708932,0.05894 L0.708391,0.059257 L0.707982,0.059433 L0.707549,0.059336 L0.706962,0.059125 L0.706337,0.058807 L0.705733,0.058389 L0.705205,0.057875 L0.704771,0.057323 L0.704446,0.056788 L0.704262,0.056385 Z" transform="matrix(1024,0,0,-1024,0,1024)"/>
 <path fill="rgb(0,255,13)" d="M0.719025,0.203788 L0.719139,0.203379 L0.719369,0.202828 L0.719699,0.202246 L0.720119,0.201686 L0.720619,0.2012 L0.721149,0.2008 L0.721658,0.200502 L0.72204,0.200332 L0.722443,0.200415 L0.722996,0.2006 L0.723592,0.200882 L0.724184,0.201263 L0.724723,0.20174 L0.725183,0.202265 L0.725538,0.202784 L0.725746,0.203184 L0.725672,0.203632 L0.725488,0.204247 L0.725188,0.204905 L0.724773,0.205539 L0.724242,0.206084 L0.723661,0.206523 L0.723092,0.206838 L0.722661,0.207007 L0.722207,0.206887 L0.721597,0.206641 L0.72096,0.206284 L0.720357,0.205829 L0.719853,0.205292 L0.719455,0.204727 L0.719174,0.204189 L0.719025,0.203788 Z" transform="matrix(1024,0,0,-1024,0,1024)"/>
 <path fill="rgb(0,255,53)" d="M0.730684,0.086562 L0.730704,0.087005 L0.730808,0.087621 L0.731011,0.088291 L0.731316,0.08896 L0.731728,0.08957 L0.732196,0.090095 L0.732665,0.090508 L0.733029,0.09076 L0.733464,0.090748 L0.734071,0.090656 L0.734737,0.090469 L0.735409,0.090181 L0.736037,0.089787 L0.736588,0.089334 L0.737029,0.088871 L0.737303,0.088506 L0.73731,0.088047 L0.737239,0.087405 L0.737065,0.086702 L0.736776,0.086003 L0.736362,0.08537 L0.735878,0.084831 L0.735385,0.084413 L0.734997,0.084162 L0.734529,0.084183 L0.733881,0.084292 L0.733179,0.084503 L0.732486,0.084818 L0.731864,0.085239 L0.731338,0.085714 L0.730929,0.086191 L0.730684,0.086562 Z" transform="matrix(1024,0,0,-1024,0,1024)"/>
 <path fill="rgb(0,255,94)" d="M0.738258,0.168539 L0.738297,0.169181 L0.738382,0.169626 L0.738704,0.16994 L0.739213,0.17032 L0.73984,0.17067 L0.74055,0.170951 L0.741306,0.171122 L0.742045,0.171193 L0.742707,0.171176 L0.74317,0.171106 L0.7435,0.170792 L0.743901,0.17029 L0.744271,0.169669 L0.744562,0.168967 L0.744725,0.168223 L0.744778,0.167497 L0.744736,0.166849 L0.744646,0.166397 L0.744304,0.166077 L0.743768,0.165687 L0.743118,0.165325 L0.742398,0.165035 L0.741652,0.164861 L0.740936,0.164791 L0.740301,0.164812 L0.739859,0.164885 L0.739533,0.165209 L0.739135,0.165722 L0.738766,0.166355 L0.738475,0.167065 L0.738312,0.167814 L0.738258,0.168539 Z" transform="matrix(1024,0,0,-1024,0,1024)"/>
 <path fill="rgb(0,255,134)" d="M0.74267,0.126681 L0.742677,0.127422 L0.742812,0.128152 L0.743036,0.128825 L0.743309,0.129393 L0.743551,0.129769 L0.743959,0.129923 L0.744558,0.130067 L0.745251,0.130142 L0.74599,0.130126 L0.746728,0.129994 L0.747417,0.12978 L0.748004,0.12952 L0.748397,0.129288 L0.748568,0.128873 L0.748733,0.128265 L0.748826,0.127566 L0.748819,0.126829 L0.748684,0.126106 L0.748458,0.125442 L0.74818,0.124882 L0.747933,0.124514 L0.747503,0.124358 L0.746876,0.124212 L0.74616,0.124134 L0.745411,0.124145 L0.744683,0.124271 L0.744018,0.124479 L0.743458,0.124737 L0.743087,0.124969 L0.742922,0.125378 L0.742762,0.125982 L0.74267,0.126681 Z" transform="matrix(1024,0,0,-1024,0,1024)"/>
 <path fill="rgb(0,255,175)" d="M0.007135,0.752151 L0.007418,0.740314 L0.008279,0.728503 L0.009715,0.716749 L0.011723,0.705079 L0.014301,0.693522 L0.017445,0.682106 L0.021154,0.67086 L0.025413,0.65981 L0.030209,0.648981 L0.035528,0.638398 L0.041357,0.628087 L0.047683,0.618073 L0.054491,0.608382 L0.061769,0.599038 L0.069503,0.590068 L0.07767,0.581489 L0.086249,0.57332 L0.095217,0.56558 L0.104552,0.558285 L0.114232,0.551456 L0.124234,0.545109 L0.134537,0.539264 L0.145118,0.533938 L0.155949,0.529141 L0.167003,0.524879 L0.178253,0.521162 L0.18967,0.517999 L0.201228,0.515397 L0.212899,0.513365 L0.224655,0.511911 L0.236468,0.511043 L0.24831,0.510759 L0.260153,0.511056 L0.271968,0.51193 L0.283725,0.51338 L0.295397,0.515403 L0.306954,0.517995 L0.318369,0.521153 L0.329612,0.524875 L0.340658,0.529147 L0.351482,0.533955 L0.362059,0.539286 L0.372362,0.545127 L0.382368,0.551463 L0.392049,0.558281 L0.401382,0.565568 L0.41034,0.57331 L0.418906,0.581484 L0.427061,0.590068 L0.434787,0.599041 L0.442065,0.608379 L0.448879,0.61806 L0.455209,0.628063 L0.461037,0.638364 L0.466345,0.648942 L0.471126,0.659769 L0.47537,0.670818 L0.479069,0.68206 L0.482216,0.693468 L0.484801,0.705016 L0.486817,0.716675 L0.488256,0.728417 L0.489109,0.740215 L0.48938,0.752041 L0.489071,0.763867 L0.488185,0.775662 L0.486726,0.7874 L0.484696,0.799051 L0.482098,0.810588 L0.478935,0.82198 L0.475211,0.833201 L0.470939,0.844225 L0.466132,0.855026 L0.460805,0.865581 L0.45497,0.875863 L0.448641,0.885847 L0.441833,0.895509 L0.434558,0.904823 L0.42683,0.913764 L0.418671,0.922314 L0.410104,0.930455 L0.40115,0.938169 L0.391832,0.945439 L0.382171,0.952245 L0.37219,0.95857 L0.361911,0.964397 L0.351355,0.969706 L0.340551,0.974491 L0.329525,0.978741 L0.318304,0.98245 L0.306916,0.985608 L0.295389,0.988209 L0.283748,0.990242 L0.272022,0.991701 L0.260238,0.992576 L0.248424,0.99287 L0.236609,0.992586 L0.22482,0.991727 L0.213087,0.990296 L0.201437,0.988294 L0.1899,0.985725 L0.178503,0.982592 L0.167275,0.978896 L0.156242,0.974652 L0.145427,0.969872 L0.134858,0.964571 L0.124559,0.95876 L0.114555,0.952454 L0.104872,0.945666 L0.095534,0.938409 L0.086569,0.930696 L0.077992,0.92255 L0.069824,0.913993 L0.062083,0.905046 L0.054786,0.895731 L0.047952,0.886071 L0.0416,0.876088 L0.035748,0.865803 L0.030415,0.855239 L0.025609,0.844424 L0.021338,0.833384 L0.017612,0.822148 L0.014438,0.810743 L0.011824,0.799197 L0.00978,0.787537 L0.008313,0.775791 L0.007433,0.763986 L0.007135,0.752151 ZM0.305287,0.749134 L0.305082,0.746351 L0.304738,0.743582 L0.304258,0.740833 L0.303643,0.73811 L0.302895,0.73542 L0.302018,0.732768 L0.301014,0.730163 L0.299882,0.72761 L0.298625,0.725116 L0.297245,0.722688 L0.295746,0.720331 L0.294133,0.71805 L0.29241,0.71585 L0.290583,0.713735 L0.288655,0.711711 L0.286631,0.709784 L0.284513,0.70796 L0.282307,0.706244 L0.280017,0.704639 L0.277652,0.703148 L0.275216,0.701773 L0.272717,0.700517 L0.270159,0.699384 L0.267549,0.698377 L0.264893,0.697501 L0.262196,0.696759 L0.259465,0.696152 L0.256707,0.695678 L0.253929,0.695339 L0.251137,0.695134 L0.248339,0.695065 L0.245541,0.695132 L0.242751,0.695338 L0.239974,0.695683 L0.237217,0.696166 L0.234486,0.696783 L0.231789,0.697531 L0.22913,0.698409 L0.226518,0.699414 L0.223958,0.700546 L0.221458,0.701802 L0.219023,0.703183 L0.21666,0.704682 L0.214373,0.706295 L0.212166,0.708018 L0.210046,0.709844 L0.208016,0.711771 L0.206084,0.713794 L0.204255,0.71591 L0.202533,0.718115 L0.200924,0.720403 L0.199428,0.722767 L0.198048,0.7252 L0.196788,0.727697 L0.19565,0.730252 L0.194639,0.732859 L0.193759,0.735512 L0.193013,0.738205 L0.192401,0.740933 L0.191924,0.743687 L0.191581,0.746461 L0.191372,0.749248 L0.191299,0.752041 L0.191363,0.754833 L0.191566,0.757619 L0.191908,0.760391 L0.192386,0.763142 L0.193,0.765867 L0.193745,0.768558 L0.194619,0.77121 L0.195622,0.773815 L0.196751,0.776368 L0.198004,0.778861 L0.199382,0.781288 L0.200878,0.783644 L0.202488,0.785924 L0.204207,0.788122 L0.206031,0.790234 L0.207956,0.792255 L0.209977,0.794178 L0.212091,0.795998 L0.214294,0.797711 L0.216579,0.799312 L0.218941,0.800799 L0.221373,0.802169 L0.223869,0.803419 L0.226424,0.804545 L0.22903,0.805544 L0.231684,0.806414 L0.234378,0.807149 L0.237106,0.807751 L0.239862,0.808217 L0.242638,0.808548 L0.245428,0.808743 L0.248226,0.808801 L0.251025,0.808721 L0.253818,0.808503 L0.256598,0.808146 L0.25936,0.807652 L0.262097,0.807027 L0.264802,0.806274 L0.267469,0.805396 L0.270091,0.804394 L0.272661,0.803268 L0.275171,0.80202 L0.277614,0.800648 L0.279984,0.799158 L0.282277,0.797555 L0.284488,0.795841 L0.286612,0.794022 L0.288643,0.792102 L0.290576,0.790086 L0.292407,0.787977 L0.294129,0.785779 L0.29574,0.783499 L0.297237,0.781143 L0.298616,0.778716 L0.299876,0.776225 L0.301012,0.773676 L0.302022,0.771075 L0.302901,0.768427 L0.303646,0.765738 L0.304257,0.763016 L0.304733,0.760267 L0.305075,0.757497 L0.305282,0.754714 L0.305353,0.751924 L0.305287,0.749134 Z" transform="matrix(1024,0,0,-1024,0,1024)"/>
 <path fill="rgb(0,255,215)" d="M0.00714,0.252124 L0.007425,0.240116 L0.008295,0.228135 L0.009747,0.216211 L0.011779,0.204372 L0.014388,0.192648 L0.017572,0.181067 L0.02133,0.16966 L0.025647,0.158452 L0.030508,0.147468 L0.035899,0.136734 L0.041806,0.126274 L0.048215,0.116115 L0.055113,0.106284 L0.062488,0.096805 L0.070325,0.087706 L0.078602,0.079004 L0.087296,0.070717 L0.096384,0.062863 L0.105843,0.05546 L0.115651,0.048528 L0.125787,0.042085 L0.136226,0.03615 L0.146949,0.030742 L0.157926,0.02587 L0.169129,0.021541 L0.180531,0.017763 L0.192103,0.014543 L0.203817,0.011892 L0.215646,0.009818 L0.227562,0.008329 L0.239537,0.007436 L0.251543,0.007135 L0.26355,0.007422 L0.27553,0.008294 L0.287453,0.009748 L0.29929,0.01178 L0.311013,0.01439 L0.322591,0.017575 L0.333997,0.021332 L0.345205,0.025647 L0.356188,0.030507 L0.366923,0.035897 L0.377383,0.041802 L0.387542,0.04821 L0.397374,0.055107 L0.406853,0.06248 L0.415954,0.070316 L0.424657,0.078592 L0.432946,0.087286 L0.440801,0.096374 L0.448205,0.105833 L0.455138,0.115641 L0.461583,0.125776 L0.467519,0.136217 L0.472927,0.146939 L0.4778,0.157917 L0.48213,0.169121 L0.485909,0.180523 L0.489129,0.192096 L0.491781,0.203811 L0.493856,0.215641 L0.495344,0.227558 L0.496237,0.239534 L0.496538,0.251541 L0.49625,0.26355 L0.495377,0.27553 L0.493922,0.287454 L0.491888,0.299293 L0.489277,0.311016 L0.48609,0.322595 L0.48233,0.334001 L0.478012,0.345208 L0.473149,0.356191 L0.467756,0.366924 L0.461848,0.377383 L0.455437,0.387539 L0.448537,0.397369 L0.441161,0.406846 L0.433323,0.415942 L0.425045,0.424642 L0.416349,0.432926 L0.40726,0.440777 L0.3978,0.448177 L0.387992,0.455106 L0.377857,0.461546 L0.367417,0.467478 L0.356695,0.472882 L0.345719,0.477751 L0.334517,0.482077 L0.323117,0.485852 L0.311547,0.489068 L0.299835,0.491717 L0.288009,0.493789 L0.276095,0.495275 L0.264123,0.496167 L0.25212,0.496467 L0.240116,0.496179 L0.22814,0.495306 L0.21622,0.493853 L0.204385,0.491821 L0.192666,0.489212 L0.18109,0.486028 L0.169686,0.482272 L0.158481,0.477958 L0.1475,0.4731 L0.136768,0.467712 L0.12631,0.461809 L0.116153,0.455404 L0.106322,0.448509 L0.096844,0.441139 L0.087745,0.433306 L0.079043,0.425032 L0.070755,0.416342 L0.0629,0.407258 L0.055496,0.397802 L0.048562,0.387997 L0.042117,0.377865 L0.03618,0.367428 L0.030771,0.356708 L0.025896,0.345734 L0.021564,0.334533 L0.017783,0.323133 L0.014561,0.311562 L0.011907,0.299849 L0.00983,0.288021 L0.008339,0.276105 L0.007443,0.26413 L0.00714,0.252124 ZM0.357672,0.256901 L0.357796,0.251702 L0.357666,0.246504 L0.357279,0.241319 L0.356634,0.236159 L0.355736,0.231037 L0.354587,0.225965 L0.353193,0.220955 L0.351557,0.216018 L0.349682,0.211167 L0.347571,0.206415 L0.345229,0.201772 L0.342659,0.197252 L0.339868,0.192863 L0.336866,0.188617 L0.333661,0.184521 L0.330259,0.180586 L0.32667,0.176822 L0.322902,0.173238 L0.318961,0.169845 L0.314856,0.166652 L0.310599,0.163666 L0.3062,0.160891 L0.301671,0.158334 L0.297023,0.156 L0.292266,0.153895 L0.287413,0.152026 L0.282474,0.150399 L0.27746,0.14902 L0.272383,0.14789 L0.267257,0.147009 L0.262094,0.14638 L0.256907,0.146002 L0.251707,0.145878 L0.246508,0.146008 L0.241322,0.146395 L0.236162,0.147039 L0.23104,0.147937 L0.225967,0.149085 L0.220956,0.150479 L0.216019,0.152115 L0.211168,0.15399 L0.206414,0.1561 L0.201771,0.158441 L0.197251,0.161011 L0.192862,0.163801 L0.188615,0.166802 L0.184519,0.170008 L0.180584,0.173408 L0.176819,0.176997 L0.173235,0.180765 L0.169842,0.184705 L0.166649,0.188808 L0.163662,0.193065 L0.160887,0.197463 L0.158329,0.201992 L0.155995,0.206639 L0.153891,0.211395 L0.152022,0.216247 L0.150395,0.221186 L0.149016,0.226199 L0.147885,0.231275 L0.147005,0.2364 L0.146375,0.241562 L0.145998,0.246749 L0.145874,0.251947 L0.146005,0.257145 L0.146391,0.262329 L0.147035,0.267488 L0.147933,0.272609 L0.149081,0.27768 L0.150475,0.282689 L0.152111,0.287624 L0.153986,0.292474 L0.156097,0.297225 L0.158439,0.301866 L0.161009,0.306385 L0.163799,0.310772 L0.166801,0.315017 L0.170006,0.319111 L0.173408,0.323045 L0.176997,0.326807 L0.180766,0.330389 L0.184707,0.33378 L0.188811,0.336972 L0.193069,0.339957 L0.197468,0.342731 L0.201997,0.345286 L0.206646,0.347619 L0.211403,0.349722 L0.216257,0.351589 L0.221198,0.353215 L0.226213,0.354594 L0.231291,0.355723 L0.236418,0.356604 L0.241582,0.357234 L0.246771,0.357612 L0.251971,0.357738 L0.25717,0.357609 L0.262356,0.357225 L0.267516,0.356583 L0.272639,0.355687 L0.277711,0.354541 L0.282722,0.35315 L0.287659,0.351515 L0.292509,0.349642 L0.297262,0.347533 L0.301904,0.345193 L0.306424,0.342625 L0.310813,0.339837 L0.31506,0.336837 L0.319155,0.333633 L0.32309,0.330233 L0.326854,0.326646 L0.330437,0.322879 L0.33383,0.318939 L0.337023,0.314836 L0.34001,0.310581 L0.342785,0.306183 L0.345342,0.301656 L0.347676,0.297009 L0.34978,0.292253 L0.351649,0.287401 L0.353276,0.282463 L0.354655,0.27745 L0.355785,0.272375 L0.356666,0.26725 L0.357295,0.262088 L0.357672,0.256901 Z" transform="matrix(1024,0,0,-1024,0,1024)"/>
 <path fill="rgb(0,255,255)" d="M0.503484,0.577114 L0.503563,0.573851 L0.5038,0.570595 L0.504193,0.567355 L0.504744,0.564138 L0.505452,0.560953 L0.506316,0.557806 L0.507337,0.554708 L0.50851,0.551663 L0.509831,0.548679 L0.511296,0.545762 L0.512899,0.54292 L0.514639,0.540159 L0.516511,0.537488 L0.518513,0.534912 L0.520642,0.53244 L0.52289,0.530077 L0.525252,0.527826 L0.52772,0.525692 L0.530288,0.52368 L0.532951,0.521795 L0.535702,0.520043 L0.538536,0.51843 L0.541448,0.51696 L0.544428,0.515636 L0.547471,0.514459 L0.550567,0.513431 L0.553709,0.512554 L0.55689,0.51183 L0.560102,0.511262 L0.563339,0.510855 L0.566591,0.51061 L0.569853,0.510526 L0.573115,0.510602 L0.576369,0.510837 L0.579609,0.511229 L0.582826,0.511777 L0.586011,0.512482 L0.589158,0.513344 L0.592257,0.514363 L0.595302,0.515534 L0.598287,0.516852 L0.601205,0.518315 L0.604049,0.519916 L0.606811,0.521653 L0.609485,0.523524 L0.612063,0.525524 L0.614537,0.527651 L0.616904,0.529898 L0.619158,0.532259 L0.621295,0.534727 L0.62331,0.537296 L0.625198,0.53996 L0.626953,0.542712 L0.628569,0.545549 L0.630041,0.548462 L0.631366,0.551445 L0.632544,0.55449 L0.633573,0.557589 L0.634451,0.560734 L0.635175,0.563917 L0.635742,0.567132 L0.636149,0.57037 L0.636393,0.573625 L0.636476,0.576888 L0.636399,0.580151 L0.636163,0.583407 L0.635771,0.586649 L0.635221,0.589866 L0.634515,0.593053 L0.633651,0.596201 L0.632631,0.599301 L0.631459,0.602347 L0.630139,0.605332 L0.628675,0.60825 L0.627072,0.611094 L0.625333,0.613857 L0.623461,0.61653 L0.621459,0.619108 L0.61933,0.621582 L0.617082,0.623947 L0.61472,0.6262 L0.612251,0.628336 L0.609681,0.63035 L0.607017,0.632237 L0.604265,0.63399 L0.601429,0.635606 L0.598515,0.637076 L0.595533,0.638402 L0.592488,0.639579 L0.589389,0.640608 L0.586245,0.641485 L0.583061,0.642209 L0.579847,0.642775 L0.576609,0.643182 L0.573354,0.643426 L0.570091,0.643509 L0.566828,0.643431 L0.563571,0.643196 L0.56033,0.642803 L0.557113,0.642253 L0.553926,0.641546 L0.550779,0.640683 L0.547678,0.639663 L0.544632,0.63849 L0.541646,0.63717 L0.538728,0.635706 L0.535884,0.634102 L0.533121,0.632363 L0.530447,0.63049 L0.527869,0.628487 L0.525395,0.626358 L0.523029,0.624108 L0.520776,0.621745 L0.518641,0.619275 L0.516628,0.616705 L0.514742,0.61404 L0.512989,0.611286 L0.511376,0.60845 L0.509906,0.605536 L0.508582,0.602553 L0.507406,0.599508 L0.506379,0.596409 L0.505503,0.593265 L0.50478,0.590082 L0.504215,0.586868 L0.503809,0.58363 L0.503566,0.580376 L0.503484,0.577114 ZM0.529487,0.621826 L0.527333,0.619788 L0.527155,0.619967 L0.529487,0.621826 Z" transform="matrix(1024,0,0,-1024,0,1024)"/>
 <path fill="rgb(0,215,255)" d="M0.510696,0.138317 L0.510819,0.144795 L0.511253,0.151264 L0.511981,0.157703 L0.513013,0.164101 L0.514357,0.170446 L0.516024,0.176726 L0.51802,0.182929 L0.520339,0.189036 L0.522972,0.195026 L0.525911,0.200879 L0.529147,0.206577 L0.532671,0.212103 L0.536474,0.217441 L0.540548,0.222577 L0.544883,0.227494 L0.549465,0.232182 L0.554281,0.236627 L0.559316,0.24082 L0.564559,0.244747 L0.569989,0.248398 L0.57559,0.25176 L0.581343,0.254822 L0.58723,0.257573 L0.593238,0.260018 L0.599354,0.262165 L0.605564,0.26402 L0.611856,0.26559 L0.618211,0.266857 L0.624614,0.267802 L0.631047,0.268406 L0.637492,0.268653 L0.643932,0.268557 L0.650345,0.268137 L0.656713,0.267409 L0.663016,0.266389 L0.669238,0.265077 L0.675366,0.263472 L0.681384,0.261571 L0.687276,0.259375 L0.693037,0.256902 L0.69866,0.254169 L0.704139,0.251195 L0.709467,0.247999 L0.714637,0.244582 L0.719641,0.240944 L0.72447,0.237088 L0.729117,0.233013 L0.73358,0.228729 L0.737855,0.224241 L0.74194,0.219559 L0.745833,0.214689 L0.749514,0.209634 L0.752965,0.204398 L0.756164,0.198983 L0.759095,0.193392 L0.761754,0.187641 L0.76414,0.181744 L0.766252,0.175717 L0.768088,0.169575 L0.769628,0.163335 L0.770852,0.157012 L0.771741,0.150624 L0.772274,0.144186 L0.772467,0.137719 L0.772336,0.131242 L0.771895,0.124777 L0.771159,0.118342 L0.770121,0.111949 L0.768771,0.105611 L0.767101,0.099338 L0.765102,0.093143 L0.762781,0.087044 L0.760148,0.081062 L0.757209,0.075216 L0.753975,0.069526 L0.750452,0.064008 L0.746651,0.058676 L0.742581,0.053546 L0.73825,0.048633 L0.733672,0.04395 L0.728861,0.039508 L0.72383,0.035319 L0.718592,0.031394 L0.713166,0.027746 L0.70757,0.024385 L0.701821,0.021324 L0.695939,0.018574 L0.689935,0.016129 L0.683823,0.013982 L0.677617,0.012127 L0.67133,0.010556 L0.664978,0.009289 L0.658579,0.008343 L0.65215,0.007736 L0.645707,0.007488 L0.639271,0.007582 L0.632861,0.008 L0.626495,0.008726 L0.620195,0.009743 L0.613974,0.011052 L0.607848,0.012655 L0.601832,0.014552 L0.595941,0.016745 L0.590181,0.019216 L0.584559,0.021946 L0.579081,0.024916 L0.573754,0.028109 L0.568584,0.031524 L0.563581,0.035158 L0.558752,0.039011 L0.554105,0.043082 L0.549643,0.047364 L0.545367,0.051847 L0.541282,0.056526 L0.537388,0.061392 L0.533707,0.066443 L0.530255,0.071675 L0.527054,0.077086 L0.524122,0.082672 L0.52146,0.088418 L0.51907,0.09431 L0.516954,0.100332 L0.515112,0.10647 L0.513566,0.112707 L0.512335,0.119026 L0.511439,0.125413 L0.510897,0.13185 L0.510696,0.138317 ZM0.767581,0.131435 L0.767715,0.137674 L0.767537,0.143904 L0.767031,0.150105 L0.766182,0.15626 L0.76501,0.162351 L0.763534,0.168365 L0.761775,0.174286 L0.759753,0.180098 L0.757466,0.185788 L0.754916,0.19134 L0.752103,0.196739 L0.749027,0.201971 L0.745707,0.207033 L0.74216,0.21192 L0.738407,0.216631 L0.734466,0.22116 L0.730339,0.225501 L0.726029,0.229646 L0.721539,0.233585 L0.71687,0.237311 L0.712031,0.240824 L0.707032,0.244121 L0.701879,0.247202 L0.696582,0.250066 L0.691147,0.252696 L0.685581,0.255073 L0.679891,0.25718 L0.674082,0.258998 L0.668169,0.260531 L0.662167,0.261781 L0.65609,0.26275 L0.649953,0.263442 L0.643774,0.263838 L0.637572,0.263922 L0.631364,0.263677 L0.625168,0.263087 L0.619002,0.262169 L0.612881,0.260941 L0.606821,0.259422 L0.600839,0.257629 L0.594948,0.255557 L0.589162,0.253198 L0.583493,0.250545 L0.577956,0.247591 L0.572568,0.244349 L0.567344,0.24083 L0.562301,0.237046 L0.557457,0.233009 L0.552824,0.228729 L0.548416,0.224217 L0.544245,0.219485 L0.540324,0.214543 L0.536663,0.209407 L0.53327,0.20409 L0.530152,0.198609 L0.527319,0.192977 L0.524779,0.187213 L0.522541,0.181337 L0.520613,0.175366 L0.519004,0.169318 L0.517705,0.163207 L0.516707,0.157043 L0.516,0.15084 L0.515576,0.144608 L0.515449,0.138367 L0.515635,0.132137 L0.516148,0.125936 L0.517004,0.119784 L0.518183,0.113695 L0.519664,0.107685 L0.521428,0.101768 L0.523454,0.095959 L0.525744,0.090274 L0.528297,0.084726 L0.531112,0.079331 L0.53419,0.074103 L0.537511,0.069045 L0.541058,0.064161 L0.544812,0.059455 L0.548753,0.054929 L0.55288,0.050591 L0.55719,0.04645 L0.561681,0.042514 L0.56635,0.038791 L0.571188,0.035281 L0.576187,0.031987 L0.581339,0.028909 L0.586635,0.026047 L0.592069,0.023421 L0.597634,0.021047 L0.603323,0.018943 L0.609131,0.017127 L0.615042,0.015597 L0.621042,0.014349 L0.627116,0.013382 L0.633251,0.012693 L0.639427,0.012299 L0.645627,0.012217 L0.651832,0.012463 L0.658024,0.013055 L0.664187,0.013974 L0.670304,0.015203 L0.67636,0.016723 L0.682338,0.018515 L0.688225,0.020587 L0.694008,0.022946 L0.699672,0.025598 L0.705204,0.028551 L0.710589,0.031791 L0.715809,0.035308 L0.720847,0.039089 L0.725688,0.043124 L0.730316,0.0474 L0.734721,0.051908 L0.738889,0.056635 L0.742806,0.061571 L0.746465,0.066702 L0.749857,0.072012 L0.752973,0.077486 L0.755806,0.083111 L0.758346,0.088867 L0.760586,0.094737 L0.762516,0.100701 L0.764129,0.106742 L0.765432,0.112847 L0.766436,0.119006 L0.767149,0.125205 L0.767581,0.131435 Z" transform="matrix(1024,0,0,-1024,0,1024)"/>
 <path fill="rgb(0,175,255)" d="M0.526749,0.147299 L0.526811,0.149847 L0.527241,0.152355 L0.528031,0.154699 L0.529171,0.156756 L0.530653,0.158401 L0.532466,0.159511 L0.534504,0.160135 L0.53666,0.160322 L0.538827,0.160123 L0.540899,0.159585 L0.542796,0.158719 L0.544441,0.157536 L0.545755,0.156045 L0.546662,0.154257 L0.5472,0.15225 L0.54741,0.150105 L0.547332,0.147899 L0.547006,0.145711 L0.546406,0.143631 L0.545506,0.141747 L0.544279,0.140148 L0.542701,0.138922 L0.540851,0.138064 L0.538811,0.137569 L0.536662,0.137431 L0.534484,0.137644 L0.532394,0.138238 L0.530506,0.139241 L0.528934,0.140682 L0.527795,0.14259 L0.527072,0.144838 L0.526749,0.147299 ZM0.540486,0.149382 L0.540394,0.150081 L0.540234,0.150685 L0.540069,0.151094 L0.539697,0.151326 L0.539137,0.151583 L0.538472,0.151791 L0.537744,0.151916 L0.536994,0.151927 L0.536278,0.151848 L0.535652,0.151702 L0.535222,0.151546 L0.534975,0.151177 L0.534697,0.150617 L0.534472,0.149953 L0.534337,0.14923 L0.534331,0.148493 L0.534425,0.147794 L0.53459,0.147186 L0.534762,0.146771 L0.535154,0.146539 L0.535742,0.146279 L0.536431,0.146066 L0.537169,0.145935 L0.537908,0.145919 L0.538601,0.145995 L0.5392,0.146139 L0.539608,0.146293 L0.539849,0.146669 L0.540122,0.147238 L0.540345,0.147911 L0.54048,0.148641 L0.540486,0.149382 Z" transform="matrix(1024,0,0,-1024,0,1024)"/>
 <path fill="rgb(0,134,255)" d="M0.530826,0.109885 L0.531032,0.107438 L0.531627,0.104991 L0.532568,0.102664 L0.533818,0.100571 L0.535344,0.098828 L0.537109,0.097547 L0.539078,0.096844 L0.541161,0.096651 L0.54327,0.096901 L0.545313,0.097527 L0.547203,0.098462 L0.548863,0.099679 L0.550219,0.101155 L0.551195,0.102863 L0.551716,0.104777 L0.551837,0.106829 L0.551611,0.108951 L0.551093,0.111075 L0.550336,0.113134 L0.549334,0.115033 L0.548078,0.116682 L0.54656,0.117987 L0.544774,0.118856 L0.542798,0.11931 L0.540711,0.119372 L0.538591,0.119062 L0.536517,0.118403 L0.534608,0.117391 L0.532982,0.116024 L0.531758,0.114298 L0.531054,0.112212 L0.530826,0.109885 ZM0.544896,0.106888 L0.544811,0.106443 L0.544489,0.106129 L0.543981,0.105749 L0.543354,0.105399 L0.542644,0.105118 L0.541889,0.104946 L0.54115,0.104874 L0.540489,0.104891 L0.540026,0.10496 L0.539695,0.105274 L0.539294,0.105775 L0.538923,0.106396 L0.538632,0.107098 L0.538469,0.107842 L0.538416,0.108568 L0.538457,0.109215 L0.538546,0.109668 L0.538888,0.109988 L0.539423,0.110377 L0.540073,0.11074 L0.540793,0.111031 L0.541538,0.111205 L0.542255,0.111276 L0.542889,0.111255 L0.543332,0.111182 L0.543657,0.110858 L0.544055,0.110346 L0.544425,0.109714 L0.544717,0.109004 L0.54488,0.108255 L0.544934,0.10753 L0.544896,0.106888 Z" transform="matrix(1024,0,0,-1024,0,1024)"/>
 <path fill="rgb(0,94,255)" d="M0.537716,0.186218 L0.537857,0.188665 L0.538477,0.191178 L0.539527,0.193626 L0.540955,0.195878 L0.542684,0.197813 L0.544639,0.199309 L0.546743,0.200246 L0.54892,0.200502 L0.551091,0.200185 L0.553177,0.199406 L0.5551,0.198272 L0.55678,0.196893 L0.558156,0.195306 L0.559168,0.19355 L0.559754,0.191662 L0.559854,0.18968 L0.559536,0.187657 L0.55887,0.185642 L0.557927,0.183687 L0.556776,0.181844 L0.555427,0.180201 L0.553889,0.178845 L0.552172,0.177867 L0.550286,0.177353 L0.548292,0.177266 L0.546249,0.177567 L0.54422,0.178217 L0.542264,0.179177 L0.540508,0.180453 L0.53908,0.182049 L0.538107,0.183969 L0.537716,0.186218 ZM0.552464,0.189534 L0.552219,0.189906 L0.55181,0.190383 L0.551283,0.190859 L0.550661,0.19128 L0.549967,0.191594 L0.549264,0.191805 L0.548616,0.191914 L0.548147,0.191935 L0.547759,0.191684 L0.547266,0.191265 L0.546782,0.190725 L0.546367,0.190092 L0.546079,0.189391 L0.545905,0.188688 L0.545834,0.188046 L0.545841,0.187587 L0.546116,0.187221 L0.546558,0.186758 L0.547109,0.186305 L0.547737,0.185911 L0.548411,0.185623 L0.549077,0.185436 L0.549684,0.185345 L0.55012,0.185332 L0.550484,0.185584 L0.550954,0.185998 L0.551421,0.186524 L0.551833,0.187134 L0.552139,0.187804 L0.552341,0.188475 L0.552445,0.189091 L0.552464,0.189534 Z" transform="matrix(1024,0,0,-1024,0,1024)"/>
 <path fill="rgb(0,53,255)" d="M0.549561,0.074606 L0.549637,0.07243 L0.550235,0.07018 L0.551283,0.067967 L0.552711,0.065897 L0.554446,0.064081 L0.5564,0.06261 L0.558485,0.061577 L0.560612,0.061076 L0.562691,0.061197 L0.564672,0.061838 L0.5665,0.062896 L0.568123,0.064265 L0.569488,0.065843 L0.570539,0.067582 L0.571219,0.069433 L0.571471,0.071348 L0.571238,0.07328 L0.57059,0.075186 L0.569601,0.077025 L0.568339,0.078757 L0.566877,0.08034 L0.565248,0.081685 L0.563487,0.082703 L0.561627,0.083307 L0.559704,0.083408 L0.557771,0.083064 L0.555882,0.082336 L0.554092,0.081281 L0.552454,0.079959 L0.55108,0.078392 L0.550079,0.0766 L0.549561,0.074606 ZM0.564182,0.072302 L0.564033,0.071901 L0.563751,0.071363 L0.563354,0.070798 L0.56285,0.070261 L0.562248,0.069806 L0.561611,0.069449 L0.561002,0.069203 L0.560548,0.069083 L0.560117,0.069251 L0.559548,0.069566 L0.558966,0.070004 L0.558436,0.070549 L0.558021,0.071183 L0.557721,0.07184 L0.557536,0.072455 L0.557462,0.072903 L0.557669,0.073303 L0.558024,0.073822 L0.558484,0.074346 L0.559023,0.074824 L0.559614,0.075205 L0.56021,0.075488 L0.560762,0.075672 L0.561166,0.075756 L0.561547,0.075586 L0.562056,0.075288 L0.562586,0.074889 L0.563087,0.074403 L0.563507,0.073843 L0.563837,0.073262 L0.564067,0.072711 L0.564182,0.072302 Z" transform="matrix(1024,0,0,-1024,0,1024)"/>
 <path fill="rgb(0,13,255)" d="M0.556536,0.138604 L0.556638,0.142795 L0.556943,0.146979 L0.557449,0.151144 L0.558158,0.155281 L0.559071,0.159379 L0.56019,0.163428 L0.561515,0.167418 L0.563041,0.171338 L0.564761,0.17518 L0.566669,0.178933 L0.568758,0.182587 L0.571027,0.186132 L0.57347,0.189558 L0.576084,0.192853 L0.578866,0.196009 L0.581806,0.199019 L0.584895,0.201878 L0.588122,0.20458 L0.591479,0.207122 L0.594956,0.209494 L0.598545,0.211688 L0.602238,0.213698 L0.606026,0.215514 L0.609899,0.217137 L0.613846,0.218566 L0.617857,0.2198 L0.621921,0.220839 L0.626029,0.22168 L0.63017,0.222317 L0.634333,0.222747 L0.638509,0.222965 L0.642686,0.222975 L0.646853,0.222781 L0.651,0.222386 L0.655115,0.221794 L0.65919,0.221003 L0.663216,0.220015 L0.667184,0.218827 L0.671084,0.217439 L0.674911,0.215864 L0.678657,0.214111 L0.682315,0.212192 L0.685879,0.210119 L0.689337,0.207889 L0.69268,0.205499 L0.695895,0.202947 L0.698973,0.200231 L0.701914,0.197362 L0.704718,0.19435 L0.707387,0.191207 L0.709919,0.187943 L0.712304,0.184565 L0.714528,0.181075 L0.71658,0.177479 L0.718447,0.173783 L0.720134,0.169909 L0.721645,0.165785 L0.722985,0.161334 L0.724158,0.15648 L0.724973,0.151882 L0.725237,0.148194 L0.72523,0.145738 L0.725727,0.143329 L0.726203,0.139651 L0.726318,0.134961 L0.726128,0.129942 L0.725689,0.125275 L0.725011,0.120888 L0.724106,0.116707 L0.722984,0.112658 L0.721655,0.10867 L0.720127,0.104752 L0.718405,0.100913 L0.716496,0.097163 L0.714405,0.093512 L0.712137,0.089969 L0.709694,0.086546 L0.70708,0.083253 L0.704298,0.0801 L0.701359,0.077092 L0.698272,0.074235 L0.695045,0.071534 L0.69169,0.068995 L0.688214,0.066625 L0.684627,0.064431 L0.680935,0.062423 L0.677149,0.060607 L0.673278,0.058985 L0.669333,0.057557 L0.665324,0.056322 L0.661261,0.055283 L0.657155,0.054443 L0.653016,0.053805 L0.648854,0.053375 L0.64468,0.053156 L0.640505,0.053145 L0.636339,0.053338 L0.632194,0.053732 L0.62808,0.054324 L0.624006,0.055113 L0.619981,0.0561 L0.616014,0.057287 L0.612114,0.058673 L0.608288,0.060247 L0.604543,0.061998 L0.600885,0.063915 L0.597321,0.065987 L0.593863,0.068215 L0.59052,0.070603 L0.587305,0.073153 L0.584226,0.075867 L0.581285,0.078735 L0.57848,0.081745 L0.57581,0.084886 L0.573277,0.088147 L0.570891,0.091524 L0.568664,0.095012 L0.566611,0.098606 L0.564741,0.102301 L0.563057,0.106088 L0.56156,0.109959 L0.560251,0.113905 L0.55913,0.117916 L0.558203,0.121982 L0.557476,0.126095 L0.556953,0.130242 L0.556641,0.134416 L0.556536,0.138604 Z" transform="matrix(1024,0,0,-1024,0,1024)"/>
 <path fill="rgb(26,0,255)" d="M0.563622,0.220426 L0.563755,0.218238 L0.56445,0.216157 L0.565586,0.214242 L0.567042,0.21255 L0.568696,0.21114 L0.570501,0.210065 L0.572409,0.20938 L0.574371,0.209137 L0.576339,0.209389 L0.578275,0.21006 L0.58014,0.211071 L0.581897,0.212345 L0.583508,0.213803 L0.584887,0.215422 L0.585949,0.217175 L0.586609,0.219038 L0.586781,0.220985 L0.586515,0.222964 L0.585858,0.224921 L0.584859,0.226804 L0.583568,0.22856 L0.582002,0.230062 L0.580179,0.231186 L0.578117,0.231804 L0.575834,0.231791 L0.57345,0.23122 L0.571086,0.230165 L0.568862,0.228699 L0.566898,0.226896 L0.565299,0.224852 L0.564172,0.222663 L0.563622,0.220426 ZM0.578899,0.219739 L0.578714,0.219335 L0.57839,0.2188 L0.577955,0.218247 L0.577427,0.217733 L0.576822,0.217314 L0.576197,0.216997 L0.57561,0.216786 L0.575177,0.216688 L0.574768,0.216864 L0.574225,0.217182 L0.573664,0.217617 L0.57314,0.218155 L0.572707,0.218782 L0.572376,0.219437 L0.572154,0.220056 L0.572051,0.220514 L0.572229,0.220939 L0.572554,0.2215 L0.573,0.222071 L0.57355,0.222591 L0.574189,0.222999 L0.57485,0.223294 L0.57547,0.223478 L0.575923,0.223552 L0.576332,0.223346 L0.576866,0.222993 L0.577409,0.22253 L0.577908,0.221981 L0.57831,0.221369 L0.578612,0.220747 L0.578809,0.220166 L0.578899,0.219739 Z" transform="matrix(1024,0,0,-1024,0,1024)"/>
 <path fill="rgb(67,0,255)" d="M0.579891,0.046813 L0.580139,0.044745 L0.581009,0.042741 L0.582394,0.040872 L0.584188,0.039209 L0.586282,0.037822 L0.588571,0.036783 L0.590935,0.036143 L0.593255,0.035953 L0.59541,0.036263 L0.597281,0.037125 L0.598867,0.038428 L0.600167,0.040057 L0.601178,0.041903 L0.601899,0.043851 L0.602282,0.045839 L0.602279,0.047802 L0.601839,0.049677 L0.600916,0.0514 L0.599602,0.052953 L0.59799,0.054319 L0.596174,0.055478 L0.594246,0.056413 L0.592261,0.057062 L0.590271,0.057362 L0.588329,0.05725 L0.586488,0.056663 L0.584787,0.055667 L0.583261,0.054325 L0.58195,0.052702 L0.580889,0.050862 L0.580172,0.048876 L0.579891,0.046813 ZM0.594489,0.047887 L0.594478,0.047475 L0.594394,0.046899 L0.594221,0.046263 L0.593951,0.045614 L0.593576,0.044998 L0.593142,0.044453 L0.592694,0.044012 L0.592337,0.043738 L0.591883,0.043731 L0.591245,0.043804 L0.590545,0.043983 L0.589847,0.04428 L0.589218,0.044705 L0.588683,0.0452 L0.588273,0.045704 L0.588031,0.046099 L0.588069,0.046567 L0.588203,0.04721 L0.588442,0.0479 L0.588783,0.048573 L0.589222,0.049164 L0.589708,0.049655 L0.590188,0.050027 L0.590557,0.050245 L0.59098,0.050204 L0.591562,0.050075 L0.592193,0.049853 L0.592818,0.049538 L0.593385,0.049132 L0.593871,0.048681 L0.594255,0.048233 L0.594489,0.047887 Z" transform="matrix(1024,0,0,-1024,0,1024)"/>
 <path fill="rgb(107,0,255)" d="M0.600941,0.239563 L0.601138,0.237408 L0.601717,0.23531 L0.602612,0.233366 L0.6038,0.231652 L0.605255,0.230242 L0.606955,0.229211 L0.608876,0.228635 L0.610946,0.228459 L0.613095,0.228631 L0.615253,0.229098 L0.617349,0.229805 L0.61929,0.230764 L0.620986,0.231983 L0.622343,0.233473 L0.623271,0.235243 L0.623789,0.237216 L0.623916,0.239312 L0.623672,0.241452 L0.623077,0.243557 L0.622123,0.24551 L0.620802,0.247192 L0.619106,0.248484 L0.617026,0.249269 L0.614686,0.249583 L0.612206,0.249466 L0.609708,0.248955 L0.607316,0.248088 L0.605148,0.246896 L0.603325,0.24541 L0.601967,0.243661 L0.601195,0.24168 L0.600941,0.239563 ZM0.615548,0.237415 L0.615468,0.236985 L0.615141,0.236682 L0.614629,0.236313 L0.614006,0.235974 L0.613311,0.235712 L0.612583,0.235575 L0.611879,0.235542 L0.611256,0.235593 L0.610824,0.235684 L0.61053,0.236008 L0.610178,0.236514 L0.609856,0.237132 L0.609604,0.237827 L0.60946,0.238563 L0.609412,0.239282 L0.609445,0.239924 L0.609522,0.240375 L0.609842,0.240684 L0.610344,0.241056 L0.610958,0.241395 L0.611646,0.241656 L0.612371,0.241792 L0.613075,0.241823 L0.613703,0.241768 L0.614142,0.241672 L0.61444,0.241326 L0.614799,0.240794 L0.61513,0.240153 L0.61539,0.239449 L0.615536,0.238725 L0.615584,0.23803 L0.615548,0.237415 Z" transform="matrix(1024,0,0,-1024,0,1024)"/>
 <path fill="rgb(148,0,255)" d="M0.618464,0.034015 L0.618591,0.031896 L0.619149,0.02988 L0.620189,0.028067 L0.621762,0.026556 L0.623748,0.025364 L0.626028,0.024503 L0.628484,0.023989 L0.630998,0.023836 L0.633442,0.024067 L0.635692,0.024702 L0.63762,0.025764 L0.639101,0.027274 L0.640159,0.029116 L0.640817,0.031173 L0.641099,0.03333 L0.641029,0.035471 L0.640599,0.037514 L0.639803,0.039378 L0.638632,0.040982 L0.637079,0.042244 L0.635235,0.043189 L0.633188,0.04384 L0.631029,0.04422 L0.628847,0.044355 L0.626718,0.044202 L0.62472,0.04372 L0.622929,0.042869 L0.621421,0.041606 L0.620209,0.040011 L0.619304,0.038162 L0.618718,0.036137 L0.618464,0.034015 ZM0.632846,0.034841 L0.632807,0.034077 L0.632648,0.033317 L0.632406,0.032614 L0.632117,0.032018 L0.631863,0.031625 L0.631433,0.031457 L0.630803,0.031302 L0.63008,0.031226 L0.629319,0.031255 L0.628577,0.031417 L0.6279,0.031672 L0.627336,0.031979 L0.626969,0.032248 L0.626818,0.032692 L0.626685,0.033339 L0.626625,0.034079 L0.62666,0.034853 L0.626811,0.035601 L0.627046,0.03628 L0.627329,0.036848 L0.627582,0.037219 L0.628005,0.037382 L0.628629,0.037533 L0.629353,0.037608 L0.630118,0.037579 L0.630868,0.037418 L0.631555,0.037166 L0.632131,0.036865 L0.632506,0.036602 L0.632657,0.036179 L0.632789,0.035558 L0.632846,0.034841 Z" transform="matrix(1024,0,0,-1024,0,1024)"/>
 <path fill="rgb(188,0,255)" d="M0.642096,0.242798 L0.642166,0.240656 L0.642595,0.238612 L0.643391,0.236747 L0.644562,0.235142 L0.646115,0.233879 L0.64796,0.232934 L0.650007,0.232283 L0.652167,0.231901 L0.65435,0.231766 L0.656479,0.231919 L0.658478,0.2324 L0.66027,0.233251 L0.661779,0.234514 L0.662992,0.236109 L0.663898,0.237959 L0.664485,0.239984 L0.66474,0.242107 L0.664614,0.244226 L0.664056,0.246243 L0.663015,0.248058 L0.661443,0.249569 L0.659457,0.250763 L0.657176,0.251625 L0.654719,0.252139 L0.652204,0.252293 L0.649759,0.252063 L0.647508,0.251428 L0.645579,0.250366 L0.644096,0.248856 L0.643038,0.247014 L0.642379,0.244956 L0.642096,0.242798 ZM0.656575,0.242045 L0.65654,0.241271 L0.656389,0.240522 L0.656154,0.239843 L0.65587,0.239275 L0.655618,0.238904 L0.655195,0.238741 L0.65457,0.238591 L0.653846,0.238515 L0.653081,0.238544 L0.65233,0.238706 L0.651643,0.238958 L0.651067,0.23926 L0.650692,0.239523 L0.650541,0.239946 L0.650409,0.240567 L0.650352,0.241284 L0.650392,0.242048 L0.650551,0.242808 L0.650793,0.243512 L0.651082,0.244108 L0.651337,0.244501 L0.651766,0.24467 L0.652397,0.244824 L0.65312,0.2449 L0.653882,0.244871 L0.654624,0.244708 L0.655301,0.244453 L0.655865,0.244146 L0.656232,0.243877 L0.656383,0.243433 L0.656516,0.242785 L0.656575,0.242045 Z" transform="matrix(1024,0,0,-1024,0,1024)"/>
 <path fill="rgb(229,0,255)" d="M0.65927,0.036819 L0.659397,0.038914 L0.659914,0.040886 L0.660841,0.042656 L0.662198,0.044145 L0.663893,0.045364 L0.665833,0.046322 L0.667928,0.047029 L0.670084,0.047496 L0.672233,0.047668 L0.674302,0.047493 L0.676221,0.046917 L0.67792,0.045887 L0.679375,0.044478 L0.680562,0.042765 L0.681457,0.040822 L0.682037,0.038725 L0.682234,0.036571 L0.68198,0.034455 L0.681208,0.032475 L0.679852,0.030727 L0.67803,0.029241 L0.675864,0.02805 L0.673473,0.027183 L0.670977,0.026671 L0.668498,0.026554 L0.666158,0.026868 L0.66408,0.027652 L0.662384,0.028943 L0.661063,0.030624 L0.660109,0.032575 L0.659514,0.03468 L0.65927,0.036819 ZM0.673734,0.036209 L0.673767,0.036851 L0.673719,0.03757 L0.673575,0.038305 L0.673323,0.038999 L0.673002,0.039617 L0.672649,0.040123 L0.672356,0.040447 L0.671924,0.040537 L0.671301,0.040588 L0.670597,0.040555 L0.669869,0.040418 L0.669175,0.040157 L0.668552,0.039818 L0.668041,0.039449 L0.667714,0.039146 L0.667634,0.038717 L0.667598,0.038102 L0.667646,0.037407 L0.667792,0.036683 L0.668052,0.035979 L0.668383,0.035339 L0.668743,0.034807 L0.66904,0.034462 L0.669479,0.034366 L0.670106,0.034311 L0.67081,0.034342 L0.671535,0.034478 L0.672222,0.034739 L0.672836,0.035078 L0.673337,0.03545 L0.673657,0.035758 L0.673734,0.036209 Z" transform="matrix(1024,0,0,-1024,0,1024)"/>
 <path fill="rgb(255,0,242)" d="M0.680923,0.230274 L0.680926,0.22831 L0.681365,0.226434 L0.682288,0.22471 L0.683602,0.223156 L0.685214,0.22179 L0.68703,0.22063 L0.688958,0.219693 L0.690944,0.219044 L0.692934,0.218743 L0.694877,0.218855 L0.696718,0.219441 L0.698421,0.220437 L0.699947,0.221779 L0.70126,0.223402 L0.702322,0.225242 L0.70304,0.227228 L0.703321,0.229291 L0.703074,0.23136 L0.702204,0.233365 L0.700819,0.235235 L0.699026,0.2369 L0.696931,0.238287 L0.694642,0.239327 L0.692277,0.239969 L0.689957,0.24016 L0.687801,0.23985 L0.685929,0.238988 L0.684342,0.237686 L0.683041,0.236056 L0.682029,0.234211 L0.681307,0.232262 L0.680923,0.230274 ZM0.695179,0.230009 L0.69514,0.229541 L0.695006,0.228897 L0.694767,0.228207 L0.694425,0.227534 L0.693986,0.226943 L0.6935,0.226452 L0.69302,0.22608 L0.692651,0.225863 L0.692228,0.225904 L0.691645,0.226032 L0.691014,0.226255 L0.690389,0.22657 L0.689822,0.226977 L0.689336,0.227428 L0.688952,0.227876 L0.688718,0.228222 L0.688729,0.228634 L0.688813,0.22921 L0.688986,0.229847 L0.689257,0.230496 L0.689632,0.231111 L0.690067,0.231657 L0.690515,0.232097 L0.690872,0.232372 L0.691327,0.232379 L0.691965,0.232305 L0.692665,0.232126 L0.693362,0.231829 L0.693992,0.231403 L0.694526,0.230908 L0.694937,0.230403 L0.695179,0.230009 Z" transform="matrix(1024,0,0,-1024,0,1024)"/>
 <path fill="rgb(255,0,202)" d="M0.696384,0.055139 L0.696556,0.057085 L0.697216,0.058947 L0.698277,0.060699 L0.699656,0.062316 L0.701266,0.063774 L0.703022,0.065047 L0.704886,0.066057 L0.706821,0.066727 L0.708788,0.066979 L0.710748,0.066736 L0.712655,0.066051 L0.714458,0.064977 L0.716112,0.063568 L0.717566,0.061877 L0.718701,0.059963 L0.719395,0.057883 L0.719528,0.055697 L0.718978,0.053462 L0.717852,0.051275 L0.716254,0.049232 L0.714291,0.04743 L0.712069,0.045965 L0.709706,0.044911 L0.707325,0.04434 L0.705043,0.044328 L0.702983,0.044945 L0.701161,0.046068 L0.699595,0.04757 L0.698305,0.049324 L0.697307,0.051206 L0.696651,0.053162 L0.696384,0.055139 ZM0.711105,0.05561 L0.711002,0.056067 L0.710781,0.056686 L0.710449,0.05734 L0.710017,0.057967 L0.709493,0.058505 L0.708932,0.05894 L0.708391,0.059257 L0.707982,0.059433 L0.707549,0.059336 L0.706962,0.059125 L0.706337,0.058807 L0.705733,0.058389 L0.705205,0.057875 L0.704771,0.057323 L0.704446,0.056788 L0.704262,0.056385 L0.704351,0.055958 L0.704549,0.055377 L0.70485,0.054755 L0.705252,0.054143 L0.705751,0.053595 L0.706294,0.053133 L0.706827,0.052779 L0.707235,0.052574 L0.707688,0.052648 L0.708308,0.052831 L0.708969,0.053127 L0.709607,0.053534 L0.710157,0.054054 L0.710602,0.054625 L0.710927,0.055185 L0.711105,0.05561 Z" transform="matrix(1024,0,0,-1024,0,1024)"/>
 <path fill="rgb(255,0,161)" d="M0.711734,0.204746 L0.711966,0.202814 L0.712613,0.200907 L0.713602,0.199066 L0.714863,0.197334 L0.716325,0.19575 L0.717954,0.194404 L0.719715,0.193384 L0.721574,0.192779 L0.723498,0.192677 L0.725432,0.19302 L0.727322,0.193748 L0.729113,0.194802 L0.730752,0.196123 L0.732128,0.19769 L0.73313,0.199482 L0.733649,0.201477 L0.733574,0.203654 L0.732977,0.205904 L0.731929,0.208119 L0.730502,0.21019 L0.728767,0.212007 L0.726813,0.21348 L0.724728,0.214514 L0.722601,0.215017 L0.72052,0.214896 L0.718539,0.214255 L0.71671,0.213199 L0.715086,0.211829 L0.713719,0.210251 L0.712667,0.208513 L0.711987,0.206661 L0.711734,0.204746 ZM0.725746,0.203184 L0.725538,0.202784 L0.725183,0.202265 L0.724723,0.20174 L0.724184,0.201263 L0.723592,0.200882 L0.722996,0.2006 L0.722443,0.200415 L0.72204,0.200332 L0.721658,0.200502 L0.721149,0.2008 L0.720619,0.2012 L0.720119,0.201686 L0.719699,0.202246 L0.719369,0.202828 L0.719139,0.203379 L0.719025,0.203788 L0.719174,0.204189 L0.719455,0.204727 L0.719853,0.205292 L0.720357,0.205829 L0.72096,0.206284 L0.721597,0.206641 L0.722207,0.206887 L0.722661,0.207007 L0.723092,0.206838 L0.723661,0.206523 L0.724242,0.206084 L0.724773,0.205539 L0.725188,0.204905 L0.725488,0.204247 L0.725672,0.203632 L0.725746,0.203184 Z" transform="matrix(1024,0,0,-1024,0,1024)"/>
 <path fill="rgb(255,0,121)" d="M0.723301,0.086419 L0.723399,0.084439 L0.723984,0.082553 L0.724995,0.080797 L0.72637,0.079211 L0.728048,0.077832 L0.729968,0.076699 L0.732053,0.075919 L0.734222,0.075603 L0.736397,0.075858 L0.738499,0.076793 L0.740453,0.078287 L0.742182,0.080219 L0.743609,0.082468 L0.744659,0.084914 L0.74528,0.087425 L0.745422,0.089869 L0.745032,0.092116 L0.744061,0.094035 L0.742635,0.09563 L0.740882,0.096906 L0.738928,0.097867 L0.7369,0.098517 L0.73486,0.098819 L0.732867,0.098733 L0.730982,0.098221 L0.729266,0.097244 L0.727729,0.09589 L0.72638,0.094249 L0.725229,0.092407 L0.724285,0.090455 L0.723619,0.088442 L0.723301,0.086419 ZM0.73731,0.088047 L0.737239,0.087405 L0.737065,0.086702 L0.736776,0.086003 L0.736362,0.08537 L0.735878,0.084831 L0.735385,0.084413 L0.734997,0.084162 L0.734529,0.084183 L0.733881,0.084292 L0.733179,0.084503 L0.732486,0.084818 L0.731864,0.085239 L0.731338,0.085714 L0.730929,0.086191 L0.730684,0.086562 L0.730704,0.087005 L0.730808,0.087621 L0.731011,0.088291 L0.731316,0.08896 L0.731728,0.08957 L0.732196,0.090095 L0.732665,0.090508 L0.733029,0.09076 L0.733464,0.090748 L0.734071,0.090656 L0.734737,0.090469 L0.735409,0.090181 L0.736037,0.089787 L0.736588,0.089334 L0.737029,0.088871 L0.737303,0.088506 L0.73731,0.088047 Z" transform="matrix(1024,0,0,-1024,0,1024)"/>
 <path fill="rgb(255,0,80)" d="M0.731354,0.169245 L0.731476,0.171298 L0.731999,0.173212 L0.732976,0.17492 L0.734333,0.176395 L0.735995,0.177612 L0.737886,0.178546 L0.73993,0.179171 L0.74204,0.179419 L0.744124,0.179225 L0.746093,0.17852 L0.747857,0.177238 L0.749382,0.175492 L0.750632,0.173398 L0.751571,0.171069 L0.752164,0.168621 L0.752367,0.166173 L0.752138,0.163846 L0.751432,0.16176 L0.750207,0.160035 L0.748579,0.158669 L0.746669,0.157658 L0.744595,0.157 L0.742475,0.156692 L0.740388,0.156755 L0.738412,0.15721 L0.736627,0.15808 L0.73511,0.159387 L0.733854,0.161037 L0.732852,0.162937 L0.732096,0.164997 L0.731578,0.167122 L0.731354,0.169245 ZM0.744736,0.166849 L0.744778,0.167497 L0.744725,0.168223 L0.744562,0.168967 L0.744271,0.169669 L0.743901,0.17029 L0.7435,0.170792 L0.74317,0.171106 L0.742707,0.171176 L0.742045,0.171193 L0.741306,0.171122 L0.74055,0.170951 L0.73984,0.17067 L0.739213,0.17032 L0.738704,0.16994 L0.738382,0.169626 L0.738297,0.169181 L0.738258,0.168539 L0.738312,0.167814 L0.738475,0.167065 L0.738766,0.166355 L0.739135,0.165722 L0.739533,0.165209 L0.739859,0.164885 L0.740301,0.164812 L0.740936,0.164791 L0.741652,0.164861 L0.742398,0.165035 L0.743118,0.165325 L0.743768,0.165687 L0.744304,0.166077 L0.744646,0.166397 L0.744736,0.166849 Z" transform="matrix(1024,0,0,-1024,0,1024)"/>
 <path fill="rgb(255,0,40)" d="M0.735745,0.125963 L0.735824,0.128169 L0.736152,0.130356 L0.736755,0.132436 L0.737657,0.134319 L0.738886,0.135918 L0.740466,0.137142 L0.742317,0.137999 L0.744357,0.138492 L0.746506,0.138629 L0.748683,0.138413 L0.750772,0.137818 L0.752659,0.136813 L0.754229,0.135371 L0.755366,0.133462 L0.756087,0.131214 L0.756407,0.128753 L0.756343,0.126206 L0.755911,0.123699 L0.755119,0.121357 L0.753977,0.119302 L0.752495,0.117659 L0.750682,0.116551 L0.748644,0.115928 L0.746489,0.115742 L0.744323,0.115943 L0.742253,0.116481 L0.740357,0.117348 L0.738713,0.118532 L0.737399,0.120023 L0.736493,0.121811 L0.735955,0.123818 L0.735745,0.125963 ZM0.748826,0.127566 L0.748733,0.128265 L0.748568,0.128873 L0.748397,0.129288 L0.748004,0.12952 L0.747417,0.12978 L0.746728,0.129994 L0.74599,0.130126 L0.745251,0.130142 L0.744558,0.130067 L0.743959,0.129923 L0.743551,0.129769 L0.743309,0.129393 L0.743036,0.128825 L0.742812,0.128152 L0.742677,0.127422 L0.74267,0.126681 L0.742762,0.125982 L0.742922,0.125378 L0.743087,0.124969 L0.743458,0.124737 L0.744018,0.124479 L0.744683,0.124271 L0.745411,0.124145 L0.74616,0.124134 L0.746876,0.124212 L0.747503,0.124358 L0.747933,0.124514 L0.74818,0.124882 L0.748458,0.125442 L0.748684,0.126106 L0.748819,0.126829 L0.748826,0.127566 Z" transform="matrix(1024,0,0,-1024,0,1024)"/>
</svg>
