<?xml version="1.0" encoding="UTF-8" standalone="no"?>
<svg
   xmlns:algsvg="http://dtd.allegorithmic.com/algsvg.dtd"
   xmlns:dc="http://purl.org/dc/elements/1.1/"
   xmlns:cc="http://creativecommons.org/ns#"
   xmlns:rdf="http://www.w3.org/1999/02/22-rdf-syntax-ns#"
   xmlns:svg="http://www.w3.org/2000/svg"
   xmlns="http://www.w3.org/2000/svg"
   xmlns:sodipodi="http://sodipodi.sourceforge.net/DTD/sodipodi-0.dtd"
   xmlns:inkscape="http://www.inkscape.org/namespaces/inkscape"
   width="1024"
   version="1.0"
   height="1024"
   algsvg:version="1.0"
   id="svg4219"
   inkscape:version="0.48.2 r9819"
   sodipodi:docname="Saucer3Low_Convert_UV_to_SVG.svg">
  <metadata
     id="metadata4233">
    <rdf:RDF>
      <cc:Work
         rdf:about="">
        <dc:format>image/svg+xml</dc:format>
        <dc:type
           rdf:resource="http://purl.org/dc/dcmitype/StillImage" />
      </cc:Work>
    </rdf:RDF>
  </metadata>
  <defs
     id="defs4231" />
  <sodipodi:namedview
     pagecolor="#ffffff"
     bordercolor="#666666"
     borderopacity="1"
     objecttolerance="10"
     gridtolerance="10"
     guidetolerance="10"
     inkscape:pageopacity="0"
     inkscape:pageshadow="2"
     inkscape:window-width="1920"
     inkscape:window-height="1018"
     id="namedview4229"
     showgrid="false"
     inkscape:zoom="3.6875"
     inkscape:cx="682.71339"
     inkscape:cy="720.0172"
     inkscape:window-x="-8"
     inkscape:window-y="-8"
     inkscape:window-maximized="1"
     inkscape:current-layer="svg4219" />
  <path
     fill="rgb(127,127,127)"
     d="M0.006876,0.300551 L0.006877,0.203098 L0.044174,0.113065 L0.113086,0.044162 L0.203122,0.006876 L0.300573,0.00688 L0.390603,0.044168 L0.459516,0.113068 L0.496817,0.203098 L0.496823,0.300549 L0.459532,0.390587 L0.390621,0.459499 L0.300581,0.496794 L0.203124,0.496794 L0.113084,0.459499 L0.044171,0.390587 L0.006876,0.300551 ZM0.358984,0.230694 L0.342738,0.191315 L0.312654,0.161153 L0.273306,0.144802 L0.230697,0.144723 L0.191312,0.160954 L0.161142,0.191025 L0.14478,0.230356 L0.144718,0.272957 L0.160965,0.312342 L0.191047,0.342513 L0.230387,0.358877 L0.272993,0.358943 L0.312381,0.342701 L0.342554,0.312624 L0.358919,0.273292 L0.358984,0.230694 Z"
     transform="matrix(1024,0,0,-1024,0,1024)"
     id="path4221" />
  <path
     fill="rgb(127,127,127)"
     d="M0.006876,0.799832 L0.006879,0.703807 L0.04366,0.615098 L0.111605,0.547233 L0.200341,0.510546 L0.296342,0.510595 L0.385005,0.547347 L0.452861,0.615208 L0.48959,0.703868 L0.48959,0.799842 L0.452851,0.888518 L0.384962,0.95639 L0.296261,0.993122 L0.200253,0.993124 L0.111546,0.9564 L0.043638,0.888531 L0.006876,0.799832 ZM0.306917,0.763669 L0.30701,0.740399 L0.298176,0.718884 L0.281729,0.702401 L0.260159,0.693478 L0.23679,0.69337 L0.215179,0.702173 L0.198606,0.71855 L0.189586,0.740003 L0.189496,0.763262 L0.198357,0.784778 L0.214846,0.801254 L0.236403,0.81026 L0.259747,0.810357 L0.28134,0.801533 L0.297902,0.785137 L0.306917,0.763669 Z"
     transform="matrix(1024,0,0,-1024,0,1024)"
     id="path4223" />
  <path
     fill="rgb(127,127,127)"
     d="M0.503341,0.615762 L0.503406,0.667971 L0.523473,0.716166 L0.560399,0.753025 L0.608619,0.772953 L0.660775,0.772953 L0.708969,0.752981 L0.745865,0.716117 L0.76584,0.667921 L0.765881,0.615754 L0.745933,0.567532 L0.709065,0.530599 L0.66084,0.510594 L0.608617,0.510546 L0.560318,0.530524 L0.52332,0.567468 L0.503341,0.615762 Z"
     transform="matrix(1024,0,0,-1024,0,1024)"
     id="path4225" />
  <path
     fill="rgb(127,127,127)"
     d="M0.510574,0.090854 L0.510576,0.062987 L0.521241,0.037243 L0.540945,0.017539 L0.56669,0.006876 L0.594556,0.006876 L0.6203,0.017539 L0.640006,0.037242 L0.650672,0.062988 L0.65067,0.090856 L0.640005,0.116601 L0.6203,0.136304 L0.594556,0.146968 L0.56669,0.146968 L0.540945,0.136304 L0.52124,0.1166 L0.510574,0.090854 Z"
     transform="matrix(1024,0,0,-1024,0,1024)"
     id="path4227" />
  <path
     transform="matrix(0.70004506,0,0,0.70004506,195.924,73.376539)"
     style="fill:#000000;stroke:#000000;stroke-width:5;stroke-linejoin:miter;stroke-miterlimit:4;stroke-opacity:1;display:inline"
     d="m 655.98779,262.89676 c 0,4.91542 -3.98473,8.90015 -8.90014,8.90015 -4.91542,0 -8.90015,-3.98473 -8.90015,-8.90015 0,-4.91542 3.98473,-8.90015 8.90015,-8.90015 4.91541,0 8.90014,3.98473 8.90014,8.90015 z"
     id="path4181" />
  <path
     transform="matrix(0.70004506,0,0,0.70004506,237.94147,81.137441)"
     style="fill:#000000;stroke:#000000;stroke-width:5;stroke-linejoin:miter;stroke-miterlimit:4;stroke-opacity:1;display:inline"
     d="m 655.98779,262.89676 c 0,4.91542 -3.98473,8.90015 -8.90014,8.90015 -4.91542,0 -8.90015,-3.98473 -8.90015,-8.90015 0,-4.91542 3.98473,-8.90015 8.90015,-8.90015 4.91541,0 8.90014,3.98473 8.90014,8.90015 z"
     id="path4183" />
  <path
     transform="matrix(0.70004506,0,0,0.70004506,273.53683,104.15168)"
     style="fill:#000000;stroke:#000000;stroke-width:5;stroke-linejoin:miter;stroke-miterlimit:4;stroke-opacity:1;display:inline"
     d="m 655.98779,262.89676 c 0,4.91542 -3.98473,8.90015 -8.90014,8.90015 -4.91542,0 -8.90015,-3.98473 -8.90015,-8.90015 0,-4.91542 3.98473,-8.90015 8.90015,-8.90015 4.91541,0 8.90014,3.98473 8.90014,8.90015 z"
     id="path4185" />
</svg>
