<svg width="1024" version="1.0" xmlns="http://www.w3.org/2000/svg" height="1024" xmlns:algsvg="http://dtd.allegorithmic.com/algsvg.dtd" algsvg:version="1.0">
 <path fill="rgb(255,0,0)" d="M0.239047,0.85248 L0.239047,0.874106 L0.439409,0.874106 L0.439409,0.85248 L0.239047,0.85248 Z" transform="matrix(1024,0,0,-1024,0,1024)"/>
 <path fill="rgb(255,102,0)" d="M0.239047,0.9182 L0.239047,0.939826 L0.439409,0.939826 L0.439409,0.9182 L0.239047,0.9182 Z" transform="matrix(1024,0,0,-1024,0,1024)"/>
 <path fill="rgb(255,204,0)" d="M0.752775,0.0948 L0.752775,0.295162 L0.7744,0.295162 L0.7744,0.0948 L0.752775,0.0948 Z" transform="matrix(1024,0,0,-1024,0,1024)"/>
 <path fill="rgb(204,255,0)" d="M0.818494,0.0948 L0.818494,0.295162 L0.84012,0.295162 L0.84012,0.0948 L0.818494,0.0948 Z" transform="matrix(1024,0,0,-1024,0,1024)"/>
 <path fill="rgb(102,255,0)" d="M0.022047,0.449366 L0.040201,0.438752 L0.055932,0.425481 L0.068777,0.409521 L0.079088,0.392072 L0.087083,0.373587 L0.092939,0.354377 L0.096787,0.33466 L0.098708,0.314587 L0.098731,0.294266 L0.096416,0.274262 L0.094708,0.254182 L0.090276,0.2341 L0.083472,0.214642 L0.073994,0.196108 L0.061456,0.179011 L0.04549,0.16429 L0.092498,0.101297 L0.144137,0.058947 L0.19902,0.033336 L0.268372,0.022047 L0.344476,0.031783 L0.394971,0.051884 L0.439409,0.07966 L0.426737,0.106891 L0.419234,0.136245 L0.415309,0.16666 L0.413744,0.197843 L0.413645,0.229735 L0.414355,0.262358 L0.415401,0.29576 L0.416457,0.329984 L0.417333,0.365071 L0.417969,0.401058 L0.41845,0.437988 L0.419041,0.475911 L0.420251,0.51488 L0.422947,0.554905 L0.428558,0.595828 L0.439409,0.636959 L0.368682,0.662728 L0.296126,0.669609 L0.204486,0.651482 L0.136356,0.614415 L0.091581,0.572138 L0.054382,0.519459 L0.022047,0.449366 Z" transform="matrix(1024,0,0,-1024,0,1024)"/>
 <path fill="rgb(0,255,0)" d="M0.022047,0.770314 L0.022047,0.798428 L0.032806,0.824402 L0.052685,0.844282 L0.078659,0.85504 L0.106773,0.85504 L0.132746,0.844282 L0.152626,0.824402 L0.163385,0.798429 L0.163385,0.770315 L0.152626,0.744341 L0.132746,0.724462 L0.106773,0.713703 L0.07866,0.713703 L0.052686,0.724461 L0.032806,0.744341 L0.022047,0.770314 Z" transform="matrix(1024,0,0,-1024,0,1024)"/>
 <path fill="rgb(0,255,102)" d="M0.346402,0.769516 L0.346431,0.750813 L0.353357,0.733316 L0.366782,0.719492 L0.384983,0.714516 L0.403076,0.713703 L0.419758,0.721124 L0.432478,0.734546 L0.439409,0.751684 L0.439409,0.770209 L0.432616,0.78744 L0.41976,0.800926 L0.402297,0.808386 L0.38327,0.808019 L0.366213,0.800327 L0.353377,0.786817 L0.346402,0.769516 Z" transform="matrix(1024,0,0,-1024,0,1024)"/>
 <path fill="rgb(0,255,204)" d="M0.483503,0.073175 L0.483503,0.273536 L0.590685,0.295162 L0.601498,0.295162 L0.708681,0.273536 L0.708681,0.073175 L0.601498,0.159677 L0.606904,0.022047 L0.585278,0.022047 L0.590685,0.159677 L0.483503,0.073175 Z" transform="matrix(1024,0,0,-1024,0,1024)"/>
 <path fill="rgb(0,204,255)" d="M0.483503,0.390383 L0.483503,0.590744 L0.590685,0.61237 L0.601498,0.61237 L0.708681,0.590744 L0.708681,0.390383 L0.601498,0.476885 L0.606904,0.339256 L0.585279,0.339256 L0.590685,0.476885 L0.483503,0.390383 Z" transform="matrix(1024,0,0,-1024,0,1024)"/>
 <path fill="rgb(0,102,255)" d="M0.483503,0.70759 L0.483503,0.907951 L0.590685,0.929577 L0.601498,0.929577 L0.708681,0.907951 L0.708681,0.70759 L0.601498,0.794092 L0.606905,0.656464 L0.58528,0.656464 L0.590685,0.794092 L0.483503,0.70759 Z" transform="matrix(1024,0,0,-1024,0,1024)"/>
 <path fill="rgb(0,0,255)" d="M0.752775,0.034487 L0.752775,0.0453 L0.861983,0.050706 L0.861983,0.029081 L0.752775,0.034487 Z" transform="matrix(1024,0,0,-1024,0,1024)"/>
 <path fill="rgb(102,0,255)" d="M0.752775,0.360881 L0.752775,0.561243 L0.859958,0.474741 L0.854551,0.612367 L0.876176,0.612367 L0.87077,0.474741 L0.977953,0.561243 L0.977953,0.360881 L0.87077,0.339256 L0.859957,0.339256 L0.752775,0.360881 Z" transform="matrix(1024,0,0,-1024,0,1024)"/>
 <path fill="rgb(204,0,255)" d="M0.752775,0.66187 L0.752775,0.672683 L0.861984,0.678089 L0.861984,0.656464 L0.752775,0.66187 Z" transform="matrix(1024,0,0,-1024,0,1024)"/>
 <path fill="rgb(255,0,204)" d="M0.752775,0.72759 L0.752775,0.738402 L0.861983,0.743809 L0.861983,0.722183 L0.752775,0.72759 Z" transform="matrix(1024,0,0,-1024,0,1024)"/>
 <path fill="rgb(255,0,102)" d="M0.752775,0.793309 L0.752775,0.804122 L0.861983,0.809528 L0.861983,0.787903 L0.752775,0.793309 Z" transform="matrix(1024,0,0,-1024,0,1024)"/>
</svg>
