<?xml version="1.0" encoding="UTF-8" standalone="no"?>
<!-- Created with Inkscape (http://www.inkscape.org/) -->

<svg
   xmlns:dc="http://purl.org/dc/elements/1.1/"
   xmlns:cc="http://creativecommons.org/ns#"
   xmlns:rdf="http://www.w3.org/1999/02/22-rdf-syntax-ns#"
   xmlns:svg="http://www.w3.org/2000/svg"
   xmlns="http://www.w3.org/2000/svg"
   version="1.0"
   width="1024"
   height="1024"
   id="svg2">
  <metadata
     id="metadata40">
    <rdf:RDF>
      <cc:Work
         rdf:about="">
        <dc:format>image/svg+xml</dc:format>
        <dc:type
           rdf:resource="http://purl.org/dc/dcmitype/StillImage" />
        <dc:title></dc:title>
      </cc:Work>
    </rdf:RDF>
  </metadata>
  <defs
     id="defs38" />
  <path
     d="m 0.318995,0.653307 0,0.277957 0.018254,0 0,-0.277957 -0.018254,0 z"
     transform="matrix(1024,0,0,-1024,0,1024)"
     id="path4"
     style="fill:#00ff00" />
  <path
     d="M 0.699364,0.812288 0.699441,0.818411 0.701856,0.824038 0.706241,0.828313 0.711927,0.830585 0.71805,0.830507 0.723677,0.828092 0.727952,0.823708 0.730223,0.818021 0.730146,0.811898 0.727731,0.80627 0.723346,0.801995 0.71766,0.799724 0.711537,0.799801 0.70591,0.802216 0.701635,0.806601 0.699364,0.812288 z"
     transform="matrix(1024,0,0,-1024,0,1024)"
     id="path6"
     style="fill:#ff00ff" />
  <path
     d="m 0.851812,0.369849 0,0.277958 0.018254,0 0,-0.277958 -0.018254,0 z"
     transform="matrix(1024,0,0,-1024,0,1024)"
     id="path8"
     style="fill:#00ff00" />
  <path
     d="m 0.85182,0.047088 0,0.277958 0.018254,0 0,-0.277958 -0.018254,0 z"
     transform="matrix(1024,0,0,-1024,0,1024)"
     id="path10"
     style="fill:#00ff00" />
  <path
     d="m 0.91487,0.369849 0,0.277958 0.018254,0 0,-0.277958 -0.018254,0 z"
     transform="matrix(1024,0,0,-1024,0,1024)"
     id="path12"
     style="fill:#00ff00" />
  <path
     d="M 0.022402,0.594854 0.054868,0.194957 0.101955,0.106538 0.19374,0.022402 0.204932,0.033097 0.217245,0.042095 0.229965,0.049655 0.243241,0.055803 0.256931,0.060595 0.270915,0.064077 0.28509,0.066282 0.299365,0.067227 0.313669,0.066913 0.327455,0.064449 0.34125,0.062087 0.354881,0.057453 0.368102,0.051474 0.380782,0.044088 0.392737,0.035224 0.403734,0.024812 0.494313,0.10871 0.540877,0.195774 0.572129,0.596678 0.537387,0.599245 0.502706,0.601692 0.468247,0.603767 0.433897,0.605484 0.39964,0.606962 0.365378,0.607875 0.331167,0.608503 0.29704,0.608502 0.262911,0.608215 0.228797,0.607313 0.194631,0.606144 0.160429,0.604432 0.126144,0.602495 0.091695,0.600131 0.057073,0.597548 0.022402,0.594854 z"
     transform="matrix(1024,0,0,-1024,0,1024)"
     id="path14"
     style="fill:#ff0000" />
  <path
     d="m 0.022402,0.653307 0,0.277956 0.090474,-0.153037 -0.004567,0.177721 0.018254,1e-6 -0.00456,-0.177722 0.090475,0.153038 -1e-6,-0.277957 -0.190075,0 z"
     transform="matrix(1024,0,0,-1024,0,1024)"
     id="path16"
     style="fill:#00ff00" />
  <path
     d="m 0.382053,0.653307 0,0.277957 0.090474,-0.153038 -0.004564,0.177715 0.018253,0 -0.004562,-0.177715 0.090475,0.153038 0,-0.277957 -0.190076,0 z"
     transform="matrix(1024,0,0,-1024,0,1024)"
     id="path18"
     style="fill:#00ff00" />
  <path
     d="m 0.616932,0.022407 9e-6,0.277958 0.090469,-0.153041 -0.004552,0.177722 0.018254,-1e-6 -0.004575,-0.177721 0.090479,0.153035 -8e-6,-0.277957 -0.090474,2e-6 -0.009127,1e-6 -0.090475,2e-6 z"
     transform="matrix(1024,0,0,-1024,0,1024)"
     id="path20"
     style="fill:#00ff00" />
  <path
     d="m 0.616932,0.369849 10e-7,0.277957 0.090474,-0.153037 -0.004561,0.177722 0.018255,0 -0.004567,-0.177722 0.090474,0.153037 0,-0.277957 -0.190076,0 z"
     transform="matrix(1024,0,0,-1024,0,1024)"
     id="path22"
     style="fill:#00ff00" />
  <path
     d="m 0.616932,0.83462 10e-7,-0.038932 0.014899,-0.035967 0.027529,-0.027528 0.035967,-0.014898 0.03893,0 0.035968,0.014897 0.027529,0.027527 0.0149,0.035968 0,0.038933 -0.014899,0.035968 -0.027529,0.027529 -0.035968,0.014898 -0.038931,0 L 0.65936,0.898117 0.631831,0.870588 0.616932,0.83462 z M 0.730223,0.818021 0.730146,0.811898 0.727731,0.80627 0.723346,0.801995 0.71766,0.799724 0.711537,0.799801 0.70591,0.802216 0.701635,0.806601 0.699364,0.812288 0.699441,0.818411 0.701856,0.824038 0.706241,0.828313 0.711927,0.830585 0.71805,0.830507 0.723677,0.828092 0.727952,0.823708 0.730223,0.818021 z"
     transform="matrix(1024,0,0,-1024,0,1024)"
     id="path24"
     style="fill:#ff00ff" />
  <path
     d="m 0.616932,0.957818 0,0.018255 0.090359,-0.004564 0,-0.009127 -0.090359,-0.004564 z"
     transform="matrix(1024,0,0,-1024,0,1024)"
     id="path26"
     style="fill:#00ff00" />
  <path
     d="m 0.857458,0.746016 0,0.013737 0.005024,0.012789 0.009424,0.009759 0.01269,0.00448 L 0.89852,0.788424 0.911619,0.782641 0.921264,0.772517 0.926495,0.759642 0.926509,0.74578 0.92143,0.732898 0.911823,0.722848 0.898818,0.717295 0.884711,0.717569 0.872098,0.723278 0.862619,0.733256 0.857458,0.746016 z"
     transform="matrix(1024,0,0,-1024,0,1024)"
     id="path28"
     style="fill:#00ff00" />
  <path
     d="m 0.857458,0.833228 0,0.018254 0.090359,-0.004563 0,-0.009128 -0.090359,-0.004563 z"
     transform="matrix(1024,0,0,-1024,0,1024)"
     id="path30"
     style="fill:#00ff00" />
  <path
     d="m 0.857458,0.900849 0,0.009128 0.090359,0.004563 0,-0.018254 -0.090359,0.004563 z"
     transform="matrix(1024,0,0,-1024,0,1024)"
     id="path32"
     style="fill:#00ff00" />
  <path
     d="m 0.857458,0.963907 0,0.009128 0.090359,0.004563 0,-0.018254 -0.090359,0.004563 z"
     transform="matrix(1024,0,0,-1024,0,1024)"
     id="path34"
     style="fill:#00ff00" />
</svg>
