<?xml version="1.0" encoding="UTF-8" standalone="no"?>
<!-- Created with Inkscape (http://www.inkscape.org/) -->

<svg
   xmlns:dc="http://purl.org/dc/elements/1.1/"
   xmlns:cc="http://creativecommons.org/ns#"
   xmlns:rdf="http://www.w3.org/1999/02/22-rdf-syntax-ns#"
   xmlns:svg="http://www.w3.org/2000/svg"
   xmlns="http://www.w3.org/2000/svg"
   version="1.0"
   width="1024"
   height="1024"
   id="svg2">
  <metadata
     id="metadata38">
    <rdf:RDF>
      <cc:Work
         rdf:about="">
        <dc:format>image/svg+xml</dc:format>
        <dc:type
           rdf:resource="http://purl.org/dc/dcmitype/StillImage" />
        <dc:title></dc:title>
      </cc:Work>
    </rdf:RDF>
  </metadata>
  <defs
     id="defs36" />
  <path
     d="m 0.239047,0.85248 0,0.021626 0.200362,0 0,-0.021626 -0.200362,0 z"
     transform="matrix(1024,0,0,-1024,0,1024)"
     id="path4"
     style="fill:#00ff00" />
  <path
     d="m 0.239047,0.9182 0,0.021626 0.200362,0 0,-0.021626 -0.200362,0 z"
     transform="matrix(1024,0,0,-1024,0,1024)"
     id="path6"
     style="fill:#00ff00" />
  <path
     d="m 0.752775,0.0948 0,0.200362 0.021625,0 0,-0.200362 -0.021625,0 z"
     transform="matrix(1024,0,0,-1024,0,1024)"
     id="path8"
     style="fill:#00ff00" />
  <path
     d="m 0.818494,0.0948 0,0.200362 0.021626,0 0,-0.200362 -0.021626,0 z"
     transform="matrix(1024,0,0,-1024,0,1024)"
     id="path10"
     style="fill:#00ff00" />
  <path
     d="M 0.022047,0.449366 0.040201,0.438752 0.055932,0.425481 0.068777,0.409521 0.079088,0.392072 0.087083,0.373587 0.092939,0.354377 0.096787,0.33466 0.098708,0.314587 0.098731,0.294266 0.096416,0.274262 0.094708,0.254182 0.090276,0.2341 0.083472,0.214642 0.073994,0.196108 0.061456,0.179011 0.04549,0.16429 0.092498,0.101297 0.144137,0.058947 0.19902,0.033336 0.268372,0.022047 0.344476,0.031783 0.394971,0.051884 0.439409,0.07966 0.426737,0.106891 0.419234,0.136245 0.415309,0.16666 0.413744,0.197843 l -9.9e-5,0.031892 7.1e-4,0.032623 0.001046,0.033402 0.001056,0.034224 8.76e-4,0.035087 6.36e-4,0.035987 4.81e-4,0.03693 5.91e-4,0.037923 L 0.420251,0.51488 0.422947,0.554905 0.428558,0.595828 0.439409,0.636959 0.368682,0.662728 0.296126,0.669609 0.204486,0.651482 0.136356,0.614415 0.091581,0.572138 0.054382,0.519459 0.022047,0.449366 z"
     transform="matrix(1024,0,0,-1024,0,1024)"
     id="path12"
     style="fill:#ff0000" />
  <path
     d="m 0.022047,0.770314 0,0.028114 0.010759,0.025974 0.019879,0.01988 0.025974,0.010758 0.028114,0 0.025973,-0.010758 0.01988,-0.01988 0.010759,-0.025973 0,-0.028114 L 0.152626,0.744341 0.132746,0.724462 0.106773,0.713703 l -0.028113,0 -0.025974,0.010758 -0.01988,0.01988 -0.010759,0.025973 z"
     transform="matrix(1024,0,0,-1024,0,1024)"
     id="path14"
     style="fill:#800080" />
  <path
     d="m 0.346402,0.769516 2.9e-5,-0.018703 0.006926,-0.017497 0.013425,-0.013824 0.018201,-0.004976 0.018093,-8.13e-4 0.016682,0.007421 0.01272,0.013422 0.006931,0.017138 0,0.018525 L 0.432616,0.78744 0.41976,0.800926 0.402297,0.808386 0.38327,0.808019 0.366213,0.800327 0.353377,0.786817 0.346402,0.769516 z"
     transform="matrix(1024,0,0,-1024,0,1024)"
     id="path16"
     style="fill:#00ffff" />
  <path
     d="m 0.483503,0.073175 0,0.200361 0.107182,0.021626 0.010813,0 0.107183,-0.021626 0,-0.200361 -0.107183,0.086502 0.005406,-0.13763 -0.021626,0 0.005407,0.13763 -0.107182,-0.086502 z"
     transform="matrix(1024,0,0,-1024,0,1024)"
     id="path18"
     style="fill:#00ff00" />
  <path
     d="m 0.483503,0.390383 0,0.200361 0.107182,0.021626 0.010813,0 0.107183,-0.021626 0,-0.200361 -0.107183,0.086502 0.005406,-0.137629 -0.021625,0 0.005406,0.137629 -0.107182,-0.086502 z"
     transform="matrix(1024,0,0,-1024,0,1024)"
     id="path20"
     style="fill:#00ff00" />
  <path
     d="m 0.483503,0.70759 0,0.200361 0.107182,0.021626 0.010813,0 0.107183,-0.021626 0,-0.200361 -0.107183,0.086502 0.005407,-0.137628 -0.021625,0 L 0.590685,0.794092 0.483503,0.70759 z"
     transform="matrix(1024,0,0,-1024,0,1024)"
     id="path22"
     style="fill:#00ff00" />
  <path
     d="m 0.752775,0.034487 0,0.010813 0.109208,0.005406 0,-0.021625 -0.109208,0.005406 z"
     transform="matrix(1024,0,0,-1024,0,1024)"
     id="path24"
     style="fill:#00ff00" />
  <path
     d="m 0.752775,0.360881 0,0.200362 0.107183,-0.086502 -0.005407,0.137626 0.021625,0 -0.005406,-0.137626 0.107183,0.086502 0,-0.200362 -0.107183,-0.021625 -0.010813,0 -0.107182,0.021625 z"
     transform="matrix(1024,0,0,-1024,0,1024)"
     id="path26"
     style="fill:#00ff00" />
  <path
     d="m 0.752775,0.66187 0,0.010813 0.109209,0.005406 0,-0.021625 -0.109209,0.005406 z"
     transform="matrix(1024,0,0,-1024,0,1024)"
     id="path28"
     style="fill:#00ff00" />
  <path
     d="m 0.752775,0.72759 0,0.010812 0.109208,0.005407 0,-0.021626 -0.109208,0.005407 z"
     transform="matrix(1024,0,0,-1024,0,1024)"
     id="path30"
     style="fill:#00ff00" />
  <path
     d="m 0.752775,0.793309 0,0.010813 0.109208,0.005406 0,-0.021625 -0.109208,0.005406 z"
     transform="matrix(1024,0,0,-1024,0,1024)"
     id="path32"
     style="fill:#00ff00" />
</svg>
