<?xml version="1.0" encoding="UTF-8" standalone="no"?>
<svg
   xmlns:algsvg="http://dtd.allegorithmic.com/algsvg.dtd"
   xmlns:dc="http://purl.org/dc/elements/1.1/"
   xmlns:cc="http://creativecommons.org/ns#"
   xmlns:rdf="http://www.w3.org/1999/02/22-rdf-syntax-ns#"
   xmlns:svg="http://www.w3.org/2000/svg"
   xmlns="http://www.w3.org/2000/svg"
   xmlns:sodipodi="http://sodipodi.sourceforge.net/DTD/sodipodi-0.dtd"
   xmlns:inkscape="http://www.inkscape.org/namespaces/inkscape"
   width="1024"
   version="1.0"
   height="1024"
   algsvg:version="1.0"
   id="svg2"
   inkscape:version="0.48.2 r9819"
   sodipodi:docname="Bomb_03_Low_Convert_UV_to_SVG.svg">
  <metadata
     id="metadata32">
    <rdf:RDF>
      <cc:Work
         rdf:about="">
        <dc:format>image/svg+xml</dc:format>
        <dc:type
           rdf:resource="http://purl.org/dc/dcmitype/StillImage" />
        <dc:title></dc:title>
      </cc:Work>
    </rdf:RDF>
  </metadata>
  <defs
     id="defs30" />
  <sodipodi:namedview
     pagecolor="#ffffff"
     bordercolor="#666666"
     borderopacity="1"
     objecttolerance="10"
     gridtolerance="10"
     guidetolerance="10"
     inkscape:pageopacity="0"
     inkscape:pageshadow="2"
     inkscape:window-width="640"
     inkscape:window-height="480"
     id="namedview28"
     showgrid="false"
     inkscape:zoom="0.23046875"
     inkscape:cx="512"
     inkscape:cy="512"
     inkscape:window-x="559"
     inkscape:window-y="152"
     inkscape:window-maximized="0"
     inkscape:current-layer="svg2" />
  <path
     d="M0.020385,0.234585 L0.032791,0.195841 L0.051553,0.150562 L0.086427,0.092624 L0.119967,0.054917 L0.159197,0.022913 L0.166665,0.031302 L0.184257,0.047165 L0.208209,0.06425 L0.233282,0.078441 L0.253903,0.087131 L0.26368,0.090273 L0.285418,0.095744 L0.313783,0.099816 L0.342857,0.101893 L0.365881,0.103285 L0.376347,0.103008 L0.399099,0.101055 L0.427755,0.095717 L0.456462,0.088247 L0.479163,0.081876 L0.489271,0.078265 L0.510366,0.06858 L0.536038,0.05471 L0.559088,0.037506 L0.574206,0.020385 L0.613526,0.050166 L0.648987,0.086762 L0.687362,0.146975 L0.706169,0.195945 L0.718084,0.237398 L0.682584,0.24886 L0.638596,0.264104 L0.595225,0.277966 L0.561066,0.287932 L0.545165,0.29256 L0.510783,0.301761 L0.466808,0.311492 L0.421336,0.318126 L0.384559,0.319295 L0.36775,0.319295 L0.331989,0.318927 L0.28671,0.316128 L0.240761,0.309697 L0.204685,0.300471 L0.188238,0.295766 L0.153086,0.285461 L0.110587,0.269269 L0.069424,0.252434 L0.036386,0.239989 L0.020385,0.234585 Z"
     transform="matrix(1024,0,0,-1024,0,1024)"
     id="path4" />
  <path
     d="M0.020385,0.548223 L0.024332,0.517513 L0.036225,0.480949 L0.054686,0.447222 L0.074294,0.423334 L0.152812,0.504294 L0.166511,0.490999 L0.088196,0.409841 L0.112689,0.391048 L0.147013,0.373697 L0.183958,0.363005 L0.21479,0.360065 L0.212638,0.473006 L0.21339,0.481515 L0.20636,0.481368 L0.190984,0.485728 L0.176749,0.492878 L0.172137,0.497324 L0.159345,0.509706 L0.154333,0.514565 L0.146722,0.528554 L0.141861,0.543772 L0.141776,0.550797 L0.14158,0.568699 L0.141521,0.575137 L0.146047,0.590428 L0.153345,0.604551 L0.15824,0.609508 L0.170731,0.622134 L0.175233,0.626669 L0.189269,0.634108 L0.204502,0.638791 L0.210935,0.638802 L0.228811,0.638803 L0.229743,0.647269 L0.210577,0.647293 L0.210214,0.759903 L0.179584,0.756302 L0.142986,0.744836 L0.109145,0.726789 L0.085138,0.707518 L0.164985,0.628319 L0.151608,0.614766 L0.071536,0.693897 L0.052475,0.669642 L0.034766,0.635593 L0.023672,0.598852 L0.020386,0.568163 L0.133075,0.568966 L0.133303,0.54977 L0.020385,0.548223 Z"
     transform="matrix(1024,0,0,-1024,0,1024)"
     id="path6" />
  <path
     d="M0.020385,0.820677 L0.020418,0.801657 L0.072463,0.800673 L0.178455,0.805921 L0.178455,0.816415 L0.072463,0.821662 L0.020385,0.820677 Z"
     transform="matrix(1024,0,0,-1024,0,1024)"
     id="path8"
     style="fill:#00ff00" />
  <path
     d="M0.020385,0.867679 L0.020385,0.878173 L0.126377,0.88342 L0.178455,0.882436 L0.178422,0.863416 L0.126377,0.862432 L0.020385,0.867679 Z"
     transform="matrix(1024,0,0,-1024,0,1024)"
     id="path10"
     style="fill:#00ff00" />
  <path
     d="M0.270514,0.433093 L0.271622,0.381051 L0.375646,0.360065 L0.386141,0.360065 L0.490165,0.38105 L0.491274,0.433124 L0.436659,0.531921 L0.386142,0.491561 L0.38828,0.556188 L0.373558,0.556185 L0.375647,0.491561 L0.325136,0.531922 L0.270514,0.433093 Z"
     transform="matrix(1024,0,0,-1024,0,1024)"
     id="path12"
     style="fill:#00ff00" />
  <path
     d="M0.353239,0.661484 L0.353338,0.671655 L0.357885,0.693176 L0.373229,0.715825 L0.39594,0.730597 L0.417103,0.73487 L0.427145,0.734896 L0.448342,0.730707 L0.47114,0.715981 L0.486557,0.693341 L0.491153,0.671812 L0.491274,0.661635 L0.487155,0.640131 L0.472292,0.617027 L0.449314,0.601461 L0.427441,0.596958 L0.417128,0.596958 L0.395273,0.601439 L0.372301,0.616943 L0.357402,0.640001 L0.353239,0.661484 Z"
     transform="matrix(1024,0,0,-1024,0,1024)"
     id="path14"
     style="fill:#800000" />
  <path
     d="M0.353239,0.812996 L0.353239,0.831834 L0.361193,0.848685 L0.367841,0.854046 L0.385206,0.864475 L0.392654,0.86762 L0.410634,0.865459 L0.425857,0.857485 L0.430738,0.851931 L0.441035,0.836319 L0.444299,0.829945 L0.444937,0.81275 L0.4384,0.795943 L0.432245,0.790904 L0.415877,0.780171 L0.408665,0.77703 L0.391296,0.775666 L0.374025,0.78135 L0.368577,0.787397 L0.357074,0.804912 L0.353239,0.812996 Z"
     transform="matrix(1024,0,0,-1024,0,1024)"
     id="path16" />
  <path
     d="M0.532044,0.433103 L0.533164,0.381029 L0.637193,0.360065 L0.647687,0.360068 L0.751707,0.381074 L0.752805,0.433116 L0.698163,0.531934 L0.64766,0.491563 L0.649738,0.556188 L0.635016,0.556188 L0.637166,0.491561 L0.58664,0.531911 L0.532044,0.433103 Z"
     transform="matrix(1024,0,0,-1024,0,1024)"
     id="path18"
     style="fill:#00ff00" />
  <path
     d="M0.532044,0.669984 L0.533154,0.617942 L0.637178,0.596958 L0.647672,0.596958 L0.751696,0.617944 L0.752805,0.670018 L0.698188,0.768815 L0.647672,0.728454 L0.649805,0.79308 L0.635083,0.793076 L0.637177,0.728454 L0.586666,0.768814 L0.532044,0.669984 Z"
     transform="matrix(1024,0,0,-1024,0,1024)"
     id="path20"
     style="fill:#00ff00" />
  <path
     d="M0.532044,0.839097 L0.532044,0.849591 L0.638036,0.854839 L0.690114,0.853854 L0.690082,0.834834 L0.638036,0.83385 L0.532044,0.839097 Z"
     transform="matrix(1024,0,0,-1024,0,1024)"
     id="path22"
     style="fill:#00ff00" />
  <path
     d="M0.730884,0.853854 L0.730917,0.834834 L0.782963,0.83385 L0.888954,0.839097 L0.888954,0.849591 L0.782962,0.854839 L0.730884,0.853854 Z"
     transform="matrix(1024,0,0,-1024,0,1024)"
     id="path24"
     style="fill:#00ff00" />
  <path
     d="M0.758854,0.09342 L0.759976,0.041345 L0.864005,0.020385 L0.874499,0.020388 L0.978518,0.041398 L0.979615,0.09344 L0.924969,0.192256 L0.874468,0.151883 L0.876545,0.216506 L0.861824,0.216506 L0.863973,0.151881 L0.813447,0.19223 L0.758854,0.09342 Z"
     transform="matrix(1024,0,0,-1024,0,1024)"
     id="path26"
     style="fill:#00ff00" />
</svg>
