<?xml version="1.0" encoding="UTF-8" standalone="no"?>
<!-- Created with Inkscape (http://www.inkscape.org/) -->

<svg
   xmlns:dc="http://purl.org/dc/elements/1.1/"
   xmlns:cc="http://creativecommons.org/ns#"
   xmlns:rdf="http://www.w3.org/1999/02/22-rdf-syntax-ns#"
   xmlns:svg="http://www.w3.org/2000/svg"
   xmlns="http://www.w3.org/2000/svg"
   version="1.0"
   width="1024"
   height="1024"
   id="svg3777">
  <metadata
     id="metadata3807">
    <rdf:RDF>
      <cc:Work
         rdf:about="">
        <dc:format>image/svg+xml</dc:format>
        <dc:type
           rdf:resource="http://purl.org/dc/dcmitype/StillImage" />
        <dc:title></dc:title>
      </cc:Work>
    </rdf:RDF>
  </metadata>
  <defs
     id="defs3805" />
  <path
     d="M 0.020385,0.234585 0.032791,0.195841 0.051553,0.150562 0.086427,0.092624 0.119967,0.054917 0.159197,0.022913 0.166665,0.031302 0.184257,0.047165 0.208209,0.06425 0.233282,0.078441 0.253903,0.087131 0.26368,0.090273 0.285418,0.095744 0.313783,0.099816 0.342857,0.101893 0.365881,0.103285 0.376347,0.103008 0.399099,0.101055 0.427755,0.095717 0.456462,0.088247 0.479163,0.081876 0.489271,0.078265 0.510366,0.06858 0.536038,0.05471 0.559088,0.037506 0.574206,0.020385 0.613526,0.050166 0.648987,0.086762 0.687362,0.146975 0.706169,0.195945 0.718084,0.237398 0.682584,0.24886 0.638596,0.264104 0.595225,0.277966 0.561066,0.287932 0.545165,0.29256 0.510783,0.301761 0.466808,0.311492 0.421336,0.318126 0.384559,0.319295 l -0.016809,0 L 0.331989,0.318927 0.28671,0.316128 0.240761,0.309697 0.204685,0.300471 0.188238,0.295766 0.153086,0.285461 0.110587,0.269269 0.069424,0.252434 0.036386,0.239989 0.020385,0.234585 z"
     transform="matrix(1024,0,0,-1024,0,1024)"
     id="path3779"
     style="fill:#ff0000;stroke:#ff0000;stroke-width:0.02441406;stroke-miterlimit:4;stroke-opacity:1;stroke-dasharray:none" />
  <path
     d="M 0.020385,0.548223 0.024332,0.517513 0.036225,0.480949 0.054686,0.447222 0.074294,0.423334 0.152812,0.504294 0.166511,0.490999 0.088196,0.409841 0.112689,0.391048 0.147013,0.373697 0.183958,0.363005 0.21479,0.360065 0.212638,0.473006 0.21339,0.481515 0.20636,0.481368 0.190984,0.485728 0.176749,0.492878 0.172137,0.497324 0.159345,0.509706 0.154333,0.514565 0.146722,0.528554 0.141861,0.543772 l -8.5e-5,0.007025 -1.96e-4,0.017902 -5.9e-5,0.006438 0.004526,0.015291 0.007298,0.014123 0.004895,0.004957 0.012491,0.012626 0.004502,0.004535 0.014036,0.007439 0.015233,0.004683 0.006433,1.1e-5 0.017876,1e-6 9.32e-4,0.008466 -0.019166,2.4e-5 -3.63e-4,0.11261 L 0.179584,0.756302 0.142986,0.744836 0.109145,0.726789 0.085138,0.707518 0.164985,0.628319 0.151608,0.614766 0.071536,0.693897 0.052475,0.669642 0.034766,0.635593 0.023672,0.598852 0.020386,0.568163 0.133075,0.568966 0.133303,0.54977 0.020385,0.548223 z"
     transform="matrix(1024,0,0,-1024,0,1024)"
     id="path3781"
     style="fill:#ff0000;stroke:#ff0000;stroke-width:0.0078125;stroke-miterlimit:4;stroke-opacity:1;stroke-dasharray:none" />
  <path
     d="m 0.020385,0.820677 3.3e-5,-0.01902 0.052045,-9.84e-4 0.105992,0.005248 0,0.010494 -0.105992,0.005247 -0.052078,-9.85e-4 z"
     transform="matrix(1024,0,0,-1024,0,1024)"
     id="path3783"
     style="fill:#00ff00;stroke:#00ff00;stroke-width:0.0078125;stroke-miterlimit:4;stroke-opacity:1;stroke-dasharray:none" />
  <path
     d="m 0.020385,0.867679 0,0.010494 0.105992,0.005247 0.052078,-9.84e-4 -3.3e-5,-0.01902 -0.052045,-9.84e-4 -0.105992,0.005247 z"
     transform="matrix(1024,0,0,-1024,0,1024)"
     id="path3785"
     style="fill:#00ff00;stroke:#00ff00;stroke-width:0.0078125;stroke-miterlimit:4;stroke-opacity:1;stroke-dasharray:none" />
  <path
     d="m 0.270514,0.433093 0.001108,-0.052042 0.104024,-0.020986 0.010495,0 L 0.490165,0.38105 0.491274,0.433124 0.436659,0.531921 0.386142,0.491561 0.38828,0.556188 0.373558,0.556185 0.375647,0.491561 0.325136,0.531922 0.270514,0.433093 z"
     transform="matrix(1024,0,0,-1024,0,1024)"
     id="path3787"
     style="fill:#00ff00;stroke:#00ff00;stroke-width:0.0078125;stroke-miterlimit:4;stroke-opacity:1;stroke-dasharray:none" />
  <path
     d="M 0.353239,0.661484 0.353338,0.671655 0.357885,0.693176 0.373229,0.715825 0.39594,0.730597 0.417103,0.73487 0.427145,0.734896 0.448342,0.730707 0.47114,0.715981 0.486557,0.693341 0.491153,0.671812 0.491274,0.661635 0.487155,0.640131 0.472292,0.617027 0.449314,0.601461 0.427441,0.596958 l -0.010313,0 L 0.395273,0.601439 0.372301,0.616943 0.357402,0.640001 0.353239,0.661484 z"
     transform="matrix(1024,0,0,-1024,0,1024)"
     id="path3789"
     style="fill:#800080;stroke:#800080;stroke-width:0.0078125;stroke-miterlimit:4;stroke-opacity:1;stroke-dasharray:none" />
  <path
     d="m 0.353239,0.812996 0,0.018838 L 0.361193,0.848685 0.367841,0.854046 0.385206,0.864475 0.392654,0.86762 0.410634,0.865459 0.425857,0.857485 0.430738,0.851931 0.441035,0.836319 0.444299,0.829945 0.444937,0.81275 0.4384,0.795943 0.432245,0.790904 0.415877,0.780171 0.408665,0.77703 0.391296,0.775666 0.374025,0.78135 0.368577,0.787397 0.357074,0.804912 0.353239,0.812996 z"
     transform="matrix(1024,0,0,-1024,0,1024)"
     id="path3791"
     style="fill:#00ffff;stroke:#00ffff;stroke-width:0.0078125;stroke-miterlimit:4;stroke-opacity:1;stroke-dasharray:none" />
  <path
     d="m 0.532044,0.433103 0.00112,-0.052074 0.104029,-0.020964 0.010494,3e-6 0.10402,0.021006 0.001098,0.052042 -0.054642,0.098818 -0.050503,-0.040371 0.002078,0.064625 -0.014722,0 L 0.637166,0.491561 0.58664,0.531911 0.532044,0.433103 z"
     transform="matrix(1024,0,0,-1024,0,1024)"
     id="path3793"
     style="fill:#00ff00;stroke:#00ff00;stroke-width:0.0078125;stroke-miterlimit:4;stroke-opacity:1;stroke-dasharray:none" />
  <path
     d="m 0.532044,0.669984 0.00111,-0.052042 0.104024,-0.020984 0.010494,0 L 0.751696,0.617944 0.752805,0.670018 0.698188,0.768815 0.647672,0.728454 0.649805,0.79308 0.635083,0.793076 0.637177,0.728454 0.586666,0.768814 0.532044,0.669984 z"
     transform="matrix(1024,0,0,-1024,0,1024)"
     id="path3795"
     style="fill:#00ff00;stroke:#00ff00;stroke-width:0.0078125;stroke-miterlimit:4;stroke-opacity:1;stroke-dasharray:none" />
  <path
     d="m 0.532044,0.839097 0,0.010494 0.105992,0.005248 0.052078,-9.85e-4 -3.2e-5,-0.01902 L 0.638036,0.83385 0.532044,0.839097 z"
     transform="matrix(1024,0,0,-1024,0,1024)"
     id="path3797"
     style="fill:#00ff00;stroke:#00ff00;stroke-width:0.0078125;stroke-miterlimit:4;stroke-opacity:1;stroke-dasharray:none" />
  <path
     d="m 0.730884,0.853854 3.3e-5,-0.01902 0.052046,-9.84e-4 0.105991,0.005247 0,0.010494 -0.105992,0.005248 -0.052078,-9.85e-4 z"
     transform="matrix(1024,0,0,-1024,0,1024)"
     id="path3799"
     style="fill:#00ff00;stroke:#00ff00;stroke-width:0.0078125;stroke-miterlimit:4;stroke-opacity:1;stroke-dasharray:none" />
  <path
     d="m 0.758854,0.09342 0.001122,-0.052075 0.104029,-0.02096 0.010494,3e-6 0.104019,0.02101 0.001097,0.052042 -0.054646,0.098816 -0.050501,-0.040373 0.002077,0.064623 -0.014721,0 L 0.863973,0.151881 0.813447,0.19223 0.758854,0.09342 z"
     transform="matrix(1024,0,0,-1024,0,1024)"
     id="path3801"
     style="fill:#00ff00;stroke:#00ff00;stroke-width:0.0078125;stroke-miterlimit:4;stroke-opacity:1;stroke-dasharray:none" />
</svg>
