<svg width="1024" version="1.0" xmlns="http://www.w3.org/2000/svg" height="1024" xmlns:algsvg="http://dtd.allegorithmic.com/algsvg.dtd" algsvg:version="1.0">
 <path fill="rgb(255,0,0)" d="M0.009024,0.300368 L0.009025,0.20369 L0.046023,0.114374 L0.114385,0.046016 L0.203703,0.009024 L0.300378,0.009027 L0.389694,0.046022 L0.458056,0.114378 L0.495056,0.203692 L0.49506,0.300369 L0.458065,0.389688 L0.389703,0.45805 L0.300383,0.495047 L0.203704,0.495047 L0.114383,0.45805 L0.046021,0.389687 L0.009024,0.300368 ZM0.354483,0.231931 L0.338989,0.194264 L0.310257,0.165394 L0.272662,0.149711 L0.231929,0.149603 L0.19426,0.165089 L0.165386,0.193814 L0.149705,0.231403 L0.149603,0.272133 L0.165095,0.309803 L0.193825,0.338677 L0.231418,0.35436 L0.27215,0.354464 L0.309822,0.338974 L0.338697,0.310248 L0.35438,0.272659 L0.354483,0.231931 Z" transform="matrix(1024,0,0,-1024,0,1024)"/>
 <path fill="rgb(255,76,0)" d="M0.009024,0.704632 L0.009073,0.799696 L0.045495,0.887479 L0.112716,0.95463 L0.200495,0.990963 L0.295497,0.990976 L0.383305,0.95466 L0.450559,0.887504 L0.487,0.799706 L0.487054,0.70463 L0.450699,0.616765 L0.383467,0.549501 L0.295599,0.513095 L0.200482,0.513095 L0.112612,0.549503 L0.045378,0.616768 L0.009024,0.704632 ZM0.304052,0.763424 L0.295453,0.783936 L0.279619,0.799581 L0.258951,0.807951 L0.236634,0.807959 L0.216072,0.799415 L0.20038,0.783649 L0.191939,0.763072 L0.19203,0.74082 L0.200641,0.720285 L0.216461,0.704596 L0.237087,0.696143 L0.25938,0.696215 L0.279947,0.7048 L0.295659,0.72059 L0.304123,0.741177 L0.304052,0.763424 Z" transform="matrix(1024,0,0,-1024,0,1024)"/>
 <path fill="rgb(255,153,0)" d="M0.505101,0.566737 L0.505102,0.593377 L0.515297,0.617989 L0.534134,0.636825 L0.558745,0.64702 L0.585384,0.64702 L0.609996,0.636826 L0.628834,0.617989 L0.63903,0.593377 L0.639029,0.566737 L0.628833,0.542125 L0.609996,0.523289 L0.585384,0.513095 L0.558745,0.513095 L0.534134,0.523289 L0.515296,0.542126 L0.505101,0.566737 Z" transform="matrix(1024,0,0,-1024,0,1024)"/>
 <path fill="rgb(255,230,0)" d="M0.513107,0.109602 L0.513107,0.159531 L0.532173,0.205646 L0.567401,0.240943 L0.613468,0.260116 L0.663392,0.260196 L0.709592,0.241167 L0.745007,0.20587 L0.764236,0.159658 L0.764258,0.109615 L0.745106,0.063398 L0.709726,0.028093 L0.663573,0.009024 L0.613649,0.009061 L0.567521,0.028167 L0.532222,0.063474 L0.513107,0.109602 Z" transform="matrix(1024,0,0,-1024,0,1024)"/>
 <path fill="rgb(204,255,0)" d="M0.675781,0.401367 L0.675781,0.414062 L0.681641,0.425781 L0.693359,0.431641 L0.704102,0.431641 L0.714844,0.425781 L0.72168,0.414062 L0.72168,0.40332 L0.714844,0.392578 L0.705078,0.385742 L0.693359,0.385742 L0.681641,0.392578 L0.675781,0.401367 Z" transform="matrix(1024,0,0,-1024,0,1024)"/>
 <path fill="rgb(128,255,0)" d="M0.675781,0.477539 L0.675781,0.490234 L0.680664,0.500977 L0.691406,0.507812 L0.704102,0.507812 L0.714844,0.500977 L0.72168,0.490234 L0.72168,0.477539 L0.714844,0.467773 L0.704102,0.461914 L0.693359,0.461914 L0.681641,0.466797 L0.675781,0.477539 Z" transform="matrix(1024,0,0,-1024,0,1024)"/>
 <path fill="rgb(51,255,0)" d="M0.675781,0.551758 L0.675781,0.564453 L0.680664,0.575195 L0.691406,0.582031 L0.704102,0.582031 L0.714844,0.575195 L0.72168,0.566406 L0.72168,0.553711 L0.714844,0.541992 L0.704102,0.536133 L0.693359,0.536133 L0.681641,0.541992 L0.675781,0.551758 Z" transform="matrix(1024,0,0,-1024,0,1024)"/>
 <path fill="rgb(0,255,25)" d="M0.675781,0.631836 L0.675781,0.644531 L0.680664,0.654297 L0.691406,0.661133 L0.704102,0.661133 L0.714844,0.654297 L0.72168,0.644531 L0.72168,0.631836 L0.714844,0.621094 L0.704102,0.615234 L0.691406,0.615234 L0.680664,0.621094 L0.675781,0.631836 Z" transform="matrix(1024,0,0,-1024,0,1024)"/>
 <path fill="rgb(0,255,102)" d="M0.675781,0.706055 L0.675781,0.71875 L0.681641,0.730469 L0.691406,0.736328 L0.704102,0.736328 L0.714844,0.730469 L0.719727,0.720703 L0.72168,0.708008 L0.714844,0.697266 L0.704102,0.69043 L0.691406,0.69043 L0.680664,0.697266 L0.675781,0.706055 Z" transform="matrix(1024,0,0,-1024,0,1024)"/>
 <path fill="rgb(0,255,179)" d="M0.75,0.401367 L0.75,0.414062 L0.755859,0.425781 L0.767578,0.431641 L0.779297,0.431641 L0.791016,0.425781 L0.795898,0.414062 L0.795898,0.40332 L0.791016,0.392578 L0.779297,0.385742 L0.767578,0.385742 L0.757812,0.392578 L0.75,0.401367 Z" transform="matrix(1024,0,0,-1024,0,1024)"/>
 <path fill="rgb(0,255,255)" d="M0.75,0.553711 L0.75,0.564453 L0.755859,0.575195 L0.767578,0.582031 L0.779297,0.582031 L0.789062,0.575195 L0.795898,0.566406 L0.796875,0.553711 L0.791016,0.541992 L0.779297,0.536133 L0.767578,0.536133 L0.755859,0.541992 L0.75,0.553711 Z" transform="matrix(1024,0,0,-1024,0,1024)"/>
 <path fill="rgb(0,179,255)" d="M0.75,0.631836 L0.75,0.643555 L0.755859,0.654297 L0.767578,0.661133 L0.779297,0.661133 L0.789062,0.654297 L0.795898,0.643555 L0.795898,0.631836 L0.789062,0.621094 L0.779297,0.615234 L0.767578,0.615234 L0.755859,0.621094 L0.75,0.631836 Z" transform="matrix(1024,0,0,-1024,0,1024)"/>
 <path fill="rgb(0,102,255)" d="M0.824219,0.477539 L0.824219,0.488281 L0.829102,0.5 L0.84082,0.505859 L0.852539,0.505859 L0.864258,0.5 L0.870117,0.490234 L0.870117,0.477539 L0.864258,0.466797 L0.852539,0.459961 L0.84082,0.459961 L0.831055,0.466797 L0.824219,0.477539 Z" transform="matrix(1024,0,0,-1024,0,1024)"/>
 <path fill="rgb(0,25,255)" d="M0.825195,0.40332 L0.825195,0.414062 L0.830078,0.425781 L0.84082,0.431641 L0.853516,0.431641 L0.865234,0.425781 L0.871094,0.416016 L0.871094,0.40332 L0.865234,0.392578 L0.853516,0.385742 L0.84082,0.385742 L0.832031,0.392578 L0.825195,0.40332 Z" transform="matrix(1024,0,0,-1024,0,1024)"/>
 <path fill="rgb(51,0,255)" d="M0.825195,0.553711 L0.825195,0.566406 L0.832031,0.575195 L0.842773,0.582031 L0.855469,0.582031 L0.865234,0.575195 L0.871094,0.566406 L0.871094,0.553711 L0.865234,0.541992 L0.855469,0.536133 L0.842773,0.536133 L0.832031,0.541992 L0.825195,0.553711 Z" transform="matrix(1024,0,0,-1024,0,1024)"/>
 <path fill="rgb(128,0,255)" d="M0.825195,0.631836 L0.825195,0.644531 L0.832031,0.654297 L0.842773,0.661133 L0.853516,0.661133 L0.865234,0.654297 L0.871094,0.644531 L0.871094,0.631836 L0.865234,0.621094 L0.853516,0.615234 L0.842773,0.615234 L0.832031,0.621094 L0.825195,0.631836 Z" transform="matrix(1024,0,0,-1024,0,1024)"/>
 <path fill="rgb(204,0,255)" d="M0.899414,0.40332 L0.899414,0.414062 L0.90625,0.425781 L0.916992,0.431641 L0.929688,0.431641 L0.94043,0.425781 L0.947266,0.414062 L0.947266,0.40332 L0.94043,0.392578 L0.929688,0.385742 L0.916992,0.385742 L0.90625,0.392578 L0.899414,0.40332 Z" transform="matrix(1024,0,0,-1024,0,1024)"/>
 <path fill="rgb(255,0,230)" d="M0.901367,0.553711 L0.901367,0.564453 L0.90625,0.575195 L0.916992,0.582031 L0.929688,0.582031 L0.94043,0.575195 L0.947266,0.564453 L0.947266,0.553711 L0.94043,0.541992 L0.929688,0.536133 L0.916992,0.536133 L0.90625,0.541992 L0.901367,0.553711 Z" transform="matrix(1024,0,0,-1024,0,1024)"/>
 <path fill="rgb(255,0,153)" d="M0.901367,0.631836 L0.901367,0.643555 L0.90625,0.654297 L0.916992,0.661133 L0.929688,0.661133 L0.94043,0.654297 L0.947266,0.644531 L0.947266,0.631836 L0.94043,0.621094 L0.929688,0.615234 L0.916992,0.615234 L0.90625,0.621094 L0.901367,0.631836 Z" transform="matrix(1024,0,0,-1024,0,1024)"/>
 <path fill="rgb(255,0,76)" d="M0.905273,0.479492 L0.905273,0.490234 L0.912109,0.500977 L0.922852,0.507812 L0.933594,0.507812 L0.945312,0.500977 L0.951172,0.490234 L0.951172,0.477539 L0.945312,0.467773 L0.933594,0.461914 L0.922852,0.461914 L0.912109,0.467773 L0.905273,0.479492 Z" transform="matrix(1024,0,0,-1024,0,1024)"/>
</svg>
